<?xml version="1.0" encoding="utf-8" standalone="no"?>
<!DOCTYPE svg PUBLIC "-//W3C//DTD SVG 1.1//EN"
  "http://www.w3.org/Graphics/SVG/1.1/DTD/svg11.dtd">
<svg xmlns:xlink="http://www.w3.org/1999/xlink" width="712.253884pt" height="351.282188pt" viewBox="0 0 712.253884 351.282188" xmlns="http://www.w3.org/2000/svg" version="1.1">
 <metadata>
  <rdf:RDF xmlns:dc="http://purl.org/dc/elements/1.1/" xmlns:cc="http://creativecommons.org/ns#" xmlns:rdf="http://www.w3.org/1999/02/22-rdf-syntax-ns#">
   <cc:Work>
    <dc:type rdf:resource="http://purl.org/dc/dcmitype/StillImage"/>
    <dc:date>2026-04-30T11:39:15.184385</dc:date>
    <dc:format>image/svg+xml</dc:format>
    <dc:creator>
     <cc:Agent>
      <dc:title>Matplotlib v3.10.9, https://matplotlib.org/</dc:title>
     </cc:Agent>
    </dc:creator>
   </cc:Work>
  </rdf:RDF>
 </metadata>
 <defs>
  <style type="text/css">*{stroke-linejoin: round; stroke-linecap: butt}</style>
 </defs>
 <g id="figure_1">
  <g id="patch_1">
   <path d="M 0 351.282188 
L 712.253884 351.282188 
L 712.253884 0 
L 0 0 
z
" style="fill: #fafafa"/>
  </g>
  <g id="axes_1">
   <g id="patch_2">
    <path d="M 52.345938 312.758125 
L 705.053884 312.758125 
L 705.053884 31.318125 
L 52.345938 31.318125 
z
" style="fill: #fafafa"/>
   </g>
   <g id="matplotlib.axis_1">
    <g id="xtick_1">
     <g id="line2d_1">
      <defs>
       <path id="me45034b0ca" d="M 0 0 
L 0 3.5 
" style="stroke: #000000; stroke-width: 0.8"/>
      </defs>
      <g>
       <use xlink:href="#me45034b0ca" x="107.44466" y="312.758125" style="stroke: #000000; stroke-width: 0.8"/>
      </g>
     </g>
     <g id="text_1">
      <!-- 1B -->
      <g transform="translate(100.832941 327.356562) scale(0.1 -0.1)">
       <defs>
        <path id="DejaVuSans-31" d="M 794 531 
L 1825 531 
L 1825 4091 
L 703 3866 
L 703 4441 
L 1819 4666 
L 2450 4666 
L 2450 531 
L 3481 531 
L 3481 0 
L 794 0 
L 794 531 
z
" transform="scale(0.015625)"/>
        <path id="DejaVuSans-42" d="M 1259 2228 
L 1259 519 
L 2272 519 
Q 2781 519 3026 730 
Q 3272 941 3272 1375 
Q 3272 1813 3026 2020 
Q 2781 2228 2272 2228 
L 1259 2228 
z
M 1259 4147 
L 1259 2741 
L 2194 2741 
Q 2656 2741 2882 2914 
Q 3109 3088 3109 3444 
Q 3109 3797 2882 3972 
Q 2656 4147 2194 4147 
L 1259 4147 
z
M 628 4666 
L 2241 4666 
Q 2963 4666 3353 4366 
Q 3744 4066 3744 3513 
Q 3744 3084 3544 2831 
Q 3344 2578 2956 2516 
Q 3422 2416 3680 2098 
Q 3938 1781 3938 1306 
Q 3938 681 3513 340 
Q 3088 0 2303 0 
L 628 0 
L 628 4666 
z
" transform="scale(0.015625)"/>
       </defs>
       <use xlink:href="#DejaVuSans-31"/>
       <use xlink:href="#DejaVuSans-42" transform="translate(63.623047 0)"/>
      </g>
     </g>
    </g>
    <g id="xtick_2">
     <g id="line2d_2">
      <g>
       <use xlink:href="#me45034b0ca" x="175.258473" y="312.758125" style="stroke: #000000; stroke-width: 0.8"/>
      </g>
     </g>
     <g id="text_2">
      <!-- 10B -->
      <g transform="translate(165.465504 327.356562) scale(0.1 -0.1)">
       <defs>
        <path id="DejaVuSans-30" d="M 2034 4250 
Q 1547 4250 1301 3770 
Q 1056 3291 1056 2328 
Q 1056 1369 1301 889 
Q 1547 409 2034 409 
Q 2525 409 2770 889 
Q 3016 1369 3016 2328 
Q 3016 3291 2770 3770 
Q 2525 4250 2034 4250 
z
M 2034 4750 
Q 2819 4750 3233 4129 
Q 3647 3509 3647 2328 
Q 3647 1150 3233 529 
Q 2819 -91 2034 -91 
Q 1250 -91 836 529 
Q 422 1150 422 2328 
Q 422 3509 836 4129 
Q 1250 4750 2034 4750 
z
" transform="scale(0.015625)"/>
       </defs>
       <use xlink:href="#DejaVuSans-31"/>
       <use xlink:href="#DejaVuSans-30" transform="translate(63.623047 0)"/>
       <use xlink:href="#DejaVuSans-42" transform="translate(127.246094 0)"/>
      </g>
     </g>
    </g>
    <g id="xtick_3">
     <g id="line2d_3">
      <g>
       <use xlink:href="#me45034b0ca" x="243.072285" y="312.758125" style="stroke: #000000; stroke-width: 0.8"/>
      </g>
     </g>
     <g id="text_3">
      <!-- 100B -->
      <g transform="translate(230.098067 327.356562) scale(0.1 -0.1)">
       <use xlink:href="#DejaVuSans-31"/>
       <use xlink:href="#DejaVuSans-30" transform="translate(63.623047 0)"/>
       <use xlink:href="#DejaVuSans-30" transform="translate(127.246094 0)"/>
       <use xlink:href="#DejaVuSans-42" transform="translate(190.869141 0)"/>
      </g>
     </g>
    </g>
    <g id="xtick_4">
     <g id="line2d_4">
      <g>
       <use xlink:href="#me45034b0ca" x="310.886098" y="312.758125" style="stroke: #000000; stroke-width: 0.8"/>
      </g>
     </g>
     <g id="text_4">
      <!-- 1KB -->
      <g transform="translate(300.995473 327.356562) scale(0.1 -0.1)">
       <defs>
        <path id="DejaVuSans-4b" d="M 628 4666 
L 1259 4666 
L 1259 2694 
L 3353 4666 
L 4166 4666 
L 1850 2491 
L 4331 0 
L 3500 0 
L 1259 2247 
L 1259 0 
L 628 0 
L 628 4666 
z
" transform="scale(0.015625)"/>
       </defs>
       <use xlink:href="#DejaVuSans-31"/>
       <use xlink:href="#DejaVuSans-4b" transform="translate(63.623047 0)"/>
       <use xlink:href="#DejaVuSans-42" transform="translate(129.199219 0)"/>
      </g>
     </g>
    </g>
    <g id="xtick_5">
     <g id="line2d_5">
      <g>
       <use xlink:href="#me45034b0ca" x="378.699911" y="312.758125" style="stroke: #000000; stroke-width: 0.8"/>
      </g>
     </g>
     <g id="text_5">
      <!-- 10KB -->
      <g transform="translate(365.628036 327.356562) scale(0.1 -0.1)">
       <use xlink:href="#DejaVuSans-31"/>
       <use xlink:href="#DejaVuSans-30" transform="translate(63.623047 0)"/>
       <use xlink:href="#DejaVuSans-4b" transform="translate(127.246094 0)"/>
       <use xlink:href="#DejaVuSans-42" transform="translate(192.822266 0)"/>
      </g>
     </g>
    </g>
    <g id="xtick_6">
     <g id="line2d_6">
      <g>
       <use xlink:href="#me45034b0ca" x="446.513723" y="312.758125" style="stroke: #000000; stroke-width: 0.8"/>
      </g>
     </g>
     <g id="text_6">
      <!-- 100KB -->
      <g transform="translate(430.260598 327.356562) scale(0.1 -0.1)">
       <use xlink:href="#DejaVuSans-31"/>
       <use xlink:href="#DejaVuSans-30" transform="translate(63.623047 0)"/>
       <use xlink:href="#DejaVuSans-30" transform="translate(127.246094 0)"/>
       <use xlink:href="#DejaVuSans-4b" transform="translate(190.869141 0)"/>
       <use xlink:href="#DejaVuSans-42" transform="translate(256.445312 0)"/>
      </g>
     </g>
    </g>
    <g id="xtick_7">
     <g id="line2d_7">
      <g>
       <use xlink:href="#me45034b0ca" x="514.327536" y="312.758125" style="stroke: #000000; stroke-width: 0.8"/>
      </g>
     </g>
     <g id="text_7">
      <!-- 1MB -->
      <g transform="translate(503.401754 327.356562) scale(0.1 -0.1)">
       <defs>
        <path id="DejaVuSans-4d" d="M 628 4666 
L 1569 4666 
L 2759 1491 
L 3956 4666 
L 4897 4666 
L 4897 0 
L 4281 0 
L 4281 4097 
L 3078 897 
L 2444 897 
L 1241 4097 
L 1241 0 
L 628 0 
L 628 4666 
z
" transform="scale(0.015625)"/>
       </defs>
       <use xlink:href="#DejaVuSans-31"/>
       <use xlink:href="#DejaVuSans-4d" transform="translate(63.623047 0)"/>
       <use xlink:href="#DejaVuSans-42" transform="translate(149.902344 0)"/>
      </g>
     </g>
    </g>
    <g id="xtick_8">
     <g id="line2d_8">
      <g>
       <use xlink:href="#me45034b0ca" x="582.141348" y="312.758125" style="stroke: #000000; stroke-width: 0.8"/>
      </g>
     </g>
     <g id="text_8">
      <!-- 10MB -->
      <g transform="translate(568.034317 327.356562) scale(0.1 -0.1)">
       <use xlink:href="#DejaVuSans-31"/>
       <use xlink:href="#DejaVuSans-30" transform="translate(63.623047 0)"/>
       <use xlink:href="#DejaVuSans-4d" transform="translate(127.246094 0)"/>
       <use xlink:href="#DejaVuSans-42" transform="translate(213.525391 0)"/>
      </g>
     </g>
    </g>
    <g id="xtick_9">
     <g id="line2d_9">
      <g>
       <use xlink:href="#me45034b0ca" x="649.955161" y="312.758125" style="stroke: #000000; stroke-width: 0.8"/>
      </g>
     </g>
     <g id="text_9">
      <!-- 100MB -->
      <g transform="translate(632.66688 327.356562) scale(0.1 -0.1)">
       <use xlink:href="#DejaVuSans-31"/>
       <use xlink:href="#DejaVuSans-30" transform="translate(63.623047 0)"/>
       <use xlink:href="#DejaVuSans-30" transform="translate(127.246094 0)"/>
       <use xlink:href="#DejaVuSans-4d" transform="translate(190.869141 0)"/>
       <use xlink:href="#DejaVuSans-42" transform="translate(277.148438 0)"/>
      </g>
     </g>
    </g>
    <g id="text_10">
     <!-- Payload Size -->
     <g transform="translate(344.211473 341.794531) scale(0.11 -0.11)">
      <defs>
       <path id="DejaVuSans-50" d="M 1259 4147 
L 1259 2394 
L 2053 2394 
Q 2494 2394 2734 2622 
Q 2975 2850 2975 3272 
Q 2975 3691 2734 3919 
Q 2494 4147 2053 4147 
L 1259 4147 
z
M 628 4666 
L 2053 4666 
Q 2838 4666 3239 4311 
Q 3641 3956 3641 3272 
Q 3641 2581 3239 2228 
Q 2838 1875 2053 1875 
L 1259 1875 
L 1259 0 
L 628 0 
L 628 4666 
z
" transform="scale(0.015625)"/>
       <path id="DejaVuSans-61" d="M 2194 1759 
Q 1497 1759 1228 1600 
Q 959 1441 959 1056 
Q 959 750 1161 570 
Q 1363 391 1709 391 
Q 2188 391 2477 730 
Q 2766 1069 2766 1631 
L 2766 1759 
L 2194 1759 
z
M 3341 1997 
L 3341 0 
L 2766 0 
L 2766 531 
Q 2569 213 2275 61 
Q 1981 -91 1556 -91 
Q 1019 -91 701 211 
Q 384 513 384 1019 
Q 384 1609 779 1909 
Q 1175 2209 1959 2209 
L 2766 2209 
L 2766 2266 
Q 2766 2663 2505 2880 
Q 2244 3097 1772 3097 
Q 1472 3097 1187 3025 
Q 903 2953 641 2809 
L 641 3341 
Q 956 3463 1253 3523 
Q 1550 3584 1831 3584 
Q 2591 3584 2966 3190 
Q 3341 2797 3341 1997 
z
" transform="scale(0.015625)"/>
       <path id="DejaVuSans-79" d="M 2059 -325 
Q 1816 -950 1584 -1140 
Q 1353 -1331 966 -1331 
L 506 -1331 
L 506 -850 
L 844 -850 
Q 1081 -850 1212 -737 
Q 1344 -625 1503 -206 
L 1606 56 
L 191 3500 
L 800 3500 
L 1894 763 
L 2988 3500 
L 3597 3500 
L 2059 -325 
z
" transform="scale(0.015625)"/>
       <path id="DejaVuSans-6c" d="M 603 4863 
L 1178 4863 
L 1178 0 
L 603 0 
L 603 4863 
z
" transform="scale(0.015625)"/>
       <path id="DejaVuSans-6f" d="M 1959 3097 
Q 1497 3097 1228 2736 
Q 959 2375 959 1747 
Q 959 1119 1226 758 
Q 1494 397 1959 397 
Q 2419 397 2687 759 
Q 2956 1122 2956 1747 
Q 2956 2369 2687 2733 
Q 2419 3097 1959 3097 
z
M 1959 3584 
Q 2709 3584 3137 3096 
Q 3566 2609 3566 1747 
Q 3566 888 3137 398 
Q 2709 -91 1959 -91 
Q 1206 -91 779 398 
Q 353 888 353 1747 
Q 353 2609 779 3096 
Q 1206 3584 1959 3584 
z
" transform="scale(0.015625)"/>
       <path id="DejaVuSans-64" d="M 2906 2969 
L 2906 4863 
L 3481 4863 
L 3481 0 
L 2906 0 
L 2906 525 
Q 2725 213 2448 61 
Q 2172 -91 1784 -91 
Q 1150 -91 751 415 
Q 353 922 353 1747 
Q 353 2572 751 3078 
Q 1150 3584 1784 3584 
Q 2172 3584 2448 3432 
Q 2725 3281 2906 2969 
z
M 947 1747 
Q 947 1113 1208 752 
Q 1469 391 1925 391 
Q 2381 391 2643 752 
Q 2906 1113 2906 1747 
Q 2906 2381 2643 2742 
Q 2381 3103 1925 3103 
Q 1469 3103 1208 2742 
Q 947 2381 947 1747 
z
" transform="scale(0.015625)"/>
       <path id="DejaVuSans-20" transform="scale(0.015625)"/>
       <path id="DejaVuSans-53" d="M 3425 4513 
L 3425 3897 
Q 3066 4069 2747 4153 
Q 2428 4238 2131 4238 
Q 1616 4238 1336 4038 
Q 1056 3838 1056 3469 
Q 1056 3159 1242 3001 
Q 1428 2844 1947 2747 
L 2328 2669 
Q 3034 2534 3370 2195 
Q 3706 1856 3706 1288 
Q 3706 609 3251 259 
Q 2797 -91 1919 -91 
Q 1588 -91 1214 -16 
Q 841 59 441 206 
L 441 856 
Q 825 641 1194 531 
Q 1563 422 1919 422 
Q 2459 422 2753 634 
Q 3047 847 3047 1241 
Q 3047 1584 2836 1778 
Q 2625 1972 2144 2069 
L 1759 2144 
Q 1053 2284 737 2584 
Q 422 2884 422 3419 
Q 422 4038 858 4394 
Q 1294 4750 2059 4750 
Q 2388 4750 2728 4690 
Q 3069 4631 3425 4513 
z
" transform="scale(0.015625)"/>
       <path id="DejaVuSans-69" d="M 603 3500 
L 1178 3500 
L 1178 0 
L 603 0 
L 603 3500 
z
M 603 4863 
L 1178 4863 
L 1178 4134 
L 603 4134 
L 603 4863 
z
" transform="scale(0.015625)"/>
       <path id="DejaVuSans-7a" d="M 353 3500 
L 3084 3500 
L 3084 2975 
L 922 459 
L 3084 459 
L 3084 0 
L 275 0 
L 275 525 
L 2438 3041 
L 353 3041 
L 353 3500 
z
" transform="scale(0.015625)"/>
       <path id="DejaVuSans-65" d="M 3597 1894 
L 3597 1613 
L 953 1613 
Q 991 1019 1311 708 
Q 1631 397 2203 397 
Q 2534 397 2845 478 
Q 3156 559 3463 722 
L 3463 178 
Q 3153 47 2828 -22 
Q 2503 -91 2169 -91 
Q 1331 -91 842 396 
Q 353 884 353 1716 
Q 353 2575 817 3079 
Q 1281 3584 2069 3584 
Q 2775 3584 3186 3129 
Q 3597 2675 3597 1894 
z
M 3022 2063 
Q 3016 2534 2758 2815 
Q 2500 3097 2075 3097 
Q 1594 3097 1305 2825 
Q 1016 2553 972 2059 
L 3022 2063 
z
" transform="scale(0.015625)"/>
      </defs>
      <use xlink:href="#DejaVuSans-50"/>
      <use xlink:href="#DejaVuSans-61" transform="translate(55.802734 0)"/>
      <use xlink:href="#DejaVuSans-79" transform="translate(117.082031 0)"/>
      <use xlink:href="#DejaVuSans-6c" transform="translate(176.261719 0)"/>
      <use xlink:href="#DejaVuSans-6f" transform="translate(204.044922 0)"/>
      <use xlink:href="#DejaVuSans-61" transform="translate(265.226562 0)"/>
      <use xlink:href="#DejaVuSans-64" transform="translate(326.505859 0)"/>
      <use xlink:href="#DejaVuSans-20" transform="translate(389.982422 0)"/>
      <use xlink:href="#DejaVuSans-53" transform="translate(421.769531 0)"/>
      <use xlink:href="#DejaVuSans-69" transform="translate(485.246094 0)"/>
      <use xlink:href="#DejaVuSans-7a" transform="translate(513.029297 0)"/>
      <use xlink:href="#DejaVuSans-65" transform="translate(565.519531 0)"/>
     </g>
    </g>
   </g>
   <g id="matplotlib.axis_2">
    <g id="ytick_1">
     <g id="line2d_10">
      <path d="M 52.345938 302.386752 
L 705.053884 302.386752 
" clip-path="url(#p9f3ce66644)" style="fill: none; stroke: #e5e7eb; stroke-opacity: 0.7; stroke-width: 0.8; stroke-linecap: square"/>
     </g>
     <g id="line2d_11">
      <defs>
       <path id="mb97bc28f06" d="M 0 0 
L -3.5 0 
" style="stroke: #000000; stroke-width: 0.8"/>
      </defs>
      <g>
       <use xlink:href="#mb97bc28f06" x="52.345938" y="302.386752" style="stroke: #000000; stroke-width: 0.8"/>
      </g>
     </g>
     <g id="text_11">
      <!-- $\mathdefault{10^{-2}}$ -->
      <g transform="translate(21.845938 306.185971) scale(0.1 -0.1)">
       <defs>
        <path id="DejaVuSans-2212" d="M 678 2272 
L 4684 2272 
L 4684 1741 
L 678 1741 
L 678 2272 
z
" transform="scale(0.015625)"/>
        <path id="DejaVuSans-32" d="M 1228 531 
L 3431 531 
L 3431 0 
L 469 0 
L 469 531 
Q 828 903 1448 1529 
Q 2069 2156 2228 2338 
Q 2531 2678 2651 2914 
Q 2772 3150 2772 3378 
Q 2772 3750 2511 3984 
Q 2250 4219 1831 4219 
Q 1534 4219 1204 4116 
Q 875 4013 500 3803 
L 500 4441 
Q 881 4594 1212 4672 
Q 1544 4750 1819 4750 
Q 2544 4750 2975 4387 
Q 3406 4025 3406 3419 
Q 3406 3131 3298 2873 
Q 3191 2616 2906 2266 
Q 2828 2175 2409 1742 
Q 1991 1309 1228 531 
z
" transform="scale(0.015625)"/>
       </defs>
       <use xlink:href="#DejaVuSans-31" transform="translate(0 0.765625)"/>
       <use xlink:href="#DejaVuSans-30" transform="translate(63.623047 0.765625)"/>
       <use xlink:href="#DejaVuSans-2212" transform="translate(128.203125 39.046875) scale(0.7)"/>
       <use xlink:href="#DejaVuSans-32" transform="translate(186.855469 39.046875) scale(0.7)"/>
      </g>
     </g>
    </g>
    <g id="ytick_2">
     <g id="line2d_12">
      <path d="M 52.345938 243.889594 
L 705.053884 243.889594 
" clip-path="url(#p9f3ce66644)" style="fill: none; stroke: #e5e7eb; stroke-opacity: 0.7; stroke-width: 0.8; stroke-linecap: square"/>
     </g>
     <g id="line2d_13">
      <g>
       <use xlink:href="#mb97bc28f06" x="52.345938" y="243.889594" style="stroke: #000000; stroke-width: 0.8"/>
      </g>
     </g>
     <g id="text_12">
      <!-- $\mathdefault{10^{-1}}$ -->
      <g transform="translate(21.845938 247.688812) scale(0.1 -0.1)">
       <use xlink:href="#DejaVuSans-31" transform="translate(0 0.684375)"/>
       <use xlink:href="#DejaVuSans-30" transform="translate(63.623047 0.684375)"/>
       <use xlink:href="#DejaVuSans-2212" transform="translate(128.203125 38.965625) scale(0.7)"/>
       <use xlink:href="#DejaVuSans-31" transform="translate(186.855469 38.965625) scale(0.7)"/>
      </g>
     </g>
    </g>
    <g id="ytick_3">
     <g id="line2d_14">
      <path d="M 52.345938 185.392435 
L 705.053884 185.392435 
" clip-path="url(#p9f3ce66644)" style="fill: none; stroke: #e5e7eb; stroke-opacity: 0.7; stroke-width: 0.8; stroke-linecap: square"/>
     </g>
     <g id="line2d_15">
      <g>
       <use xlink:href="#mb97bc28f06" x="52.345938" y="185.392435" style="stroke: #000000; stroke-width: 0.8"/>
      </g>
     </g>
     <g id="text_13">
      <!-- $\mathdefault{10^{0}}$ -->
      <g transform="translate(27.745938 189.191654) scale(0.1 -0.1)">
       <use xlink:href="#DejaVuSans-31" transform="translate(0 0.765625)"/>
       <use xlink:href="#DejaVuSans-30" transform="translate(63.623047 0.765625)"/>
       <use xlink:href="#DejaVuSans-30" transform="translate(128.203125 39.046875) scale(0.7)"/>
      </g>
     </g>
    </g>
    <g id="ytick_4">
     <g id="line2d_16">
      <path d="M 52.345938 126.895277 
L 705.053884 126.895277 
" clip-path="url(#p9f3ce66644)" style="fill: none; stroke: #e5e7eb; stroke-opacity: 0.7; stroke-width: 0.8; stroke-linecap: square"/>
     </g>
     <g id="line2d_17">
      <g>
       <use xlink:href="#mb97bc28f06" x="52.345938" y="126.895277" style="stroke: #000000; stroke-width: 0.8"/>
      </g>
     </g>
     <g id="text_14">
      <!-- $\mathdefault{10^{1}}$ -->
      <g transform="translate(27.745938 130.694495) scale(0.1 -0.1)">
       <use xlink:href="#DejaVuSans-31" transform="translate(0 0.684375)"/>
       <use xlink:href="#DejaVuSans-30" transform="translate(63.623047 0.684375)"/>
       <use xlink:href="#DejaVuSans-31" transform="translate(128.203125 38.965625) scale(0.7)"/>
      </g>
     </g>
    </g>
    <g id="ytick_5">
     <g id="line2d_18">
      <path d="M 52.345938 68.398118 
L 705.053884 68.398118 
" clip-path="url(#p9f3ce66644)" style="fill: none; stroke: #e5e7eb; stroke-opacity: 0.7; stroke-width: 0.8; stroke-linecap: square"/>
     </g>
     <g id="line2d_19">
      <g>
       <use xlink:href="#mb97bc28f06" x="52.345938" y="68.398118" style="stroke: #000000; stroke-width: 0.8"/>
      </g>
     </g>
     <g id="text_15">
      <!-- $\mathdefault{10^{2}}$ -->
      <g transform="translate(27.745938 72.197337) scale(0.1 -0.1)">
       <use xlink:href="#DejaVuSans-31" transform="translate(0 0.765625)"/>
       <use xlink:href="#DejaVuSans-30" transform="translate(63.623047 0.765625)"/>
       <use xlink:href="#DejaVuSans-32" transform="translate(128.203125 39.046875) scale(0.7)"/>
      </g>
     </g>
    </g>
    <g id="ytick_6">
     <g id="line2d_20">
      <defs>
       <path id="m5bbd892004" d="M 0 0 
L -2 0 
" style="stroke: #000000; stroke-width: 0.6"/>
      </defs>
      <g>
       <use xlink:href="#m5bbd892004" x="52.345938" y="311.448077" style="stroke: #000000; stroke-width: 0.6"/>
      </g>
     </g>
    </g>
    <g id="ytick_7">
     <g id="line2d_21">
      <g>
       <use xlink:href="#m5bbd892004" x="52.345938" y="308.055713" style="stroke: #000000; stroke-width: 0.6"/>
      </g>
     </g>
    </g>
    <g id="ytick_8">
     <g id="line2d_22">
      <g>
       <use xlink:href="#m5bbd892004" x="52.345938" y="305.063435" style="stroke: #000000; stroke-width: 0.6"/>
      </g>
     </g>
    </g>
    <g id="ytick_9">
     <g id="line2d_23">
      <g>
       <use xlink:href="#m5bbd892004" x="52.345938" y="284.777353" style="stroke: #000000; stroke-width: 0.6"/>
      </g>
     </g>
    </g>
    <g id="ytick_10">
     <g id="line2d_24">
      <g>
       <use xlink:href="#m5bbd892004" x="52.345938" y="274.476515" style="stroke: #000000; stroke-width: 0.6"/>
      </g>
     </g>
    </g>
    <g id="ytick_11">
     <g id="line2d_25">
      <g>
       <use xlink:href="#m5bbd892004" x="52.345938" y="267.167953" style="stroke: #000000; stroke-width: 0.6"/>
      </g>
     </g>
    </g>
    <g id="ytick_12">
     <g id="line2d_26">
      <g>
       <use xlink:href="#m5bbd892004" x="52.345938" y="261.498993" style="stroke: #000000; stroke-width: 0.6"/>
      </g>
     </g>
    </g>
    <g id="ytick_13">
     <g id="line2d_27">
      <g>
       <use xlink:href="#m5bbd892004" x="52.345938" y="256.867115" style="stroke: #000000; stroke-width: 0.6"/>
      </g>
     </g>
    </g>
    <g id="ytick_14">
     <g id="line2d_28">
      <g>
       <use xlink:href="#m5bbd892004" x="52.345938" y="252.950918" style="stroke: #000000; stroke-width: 0.6"/>
      </g>
     </g>
    </g>
    <g id="ytick_15">
     <g id="line2d_29">
      <g>
       <use xlink:href="#m5bbd892004" x="52.345938" y="249.558554" style="stroke: #000000; stroke-width: 0.6"/>
      </g>
     </g>
    </g>
    <g id="ytick_16">
     <g id="line2d_30">
      <g>
       <use xlink:href="#m5bbd892004" x="52.345938" y="246.566277" style="stroke: #000000; stroke-width: 0.6"/>
      </g>
     </g>
    </g>
    <g id="ytick_17">
     <g id="line2d_31">
      <g>
       <use xlink:href="#m5bbd892004" x="52.345938" y="226.280194" style="stroke: #000000; stroke-width: 0.6"/>
      </g>
     </g>
    </g>
    <g id="ytick_18">
     <g id="line2d_32">
      <g>
       <use xlink:href="#m5bbd892004" x="52.345938" y="215.979356" style="stroke: #000000; stroke-width: 0.6"/>
      </g>
     </g>
    </g>
    <g id="ytick_19">
     <g id="line2d_33">
      <g>
       <use xlink:href="#m5bbd892004" x="52.345938" y="208.670795" style="stroke: #000000; stroke-width: 0.6"/>
      </g>
     </g>
    </g>
    <g id="ytick_20">
     <g id="line2d_34">
      <g>
       <use xlink:href="#m5bbd892004" x="52.345938" y="203.001834" style="stroke: #000000; stroke-width: 0.6"/>
      </g>
     </g>
    </g>
    <g id="ytick_21">
     <g id="line2d_35">
      <g>
       <use xlink:href="#m5bbd892004" x="52.345938" y="198.369957" style="stroke: #000000; stroke-width: 0.6"/>
      </g>
     </g>
    </g>
    <g id="ytick_22">
     <g id="line2d_36">
      <g>
       <use xlink:href="#m5bbd892004" x="52.345938" y="194.45376" style="stroke: #000000; stroke-width: 0.6"/>
      </g>
     </g>
    </g>
    <g id="ytick_23">
     <g id="line2d_37">
      <g>
       <use xlink:href="#m5bbd892004" x="52.345938" y="191.061395" style="stroke: #000000; stroke-width: 0.6"/>
      </g>
     </g>
    </g>
    <g id="ytick_24">
     <g id="line2d_38">
      <g>
       <use xlink:href="#m5bbd892004" x="52.345938" y="188.069118" style="stroke: #000000; stroke-width: 0.6"/>
      </g>
     </g>
    </g>
    <g id="ytick_25">
     <g id="line2d_39">
      <g>
       <use xlink:href="#m5bbd892004" x="52.345938" y="167.783036" style="stroke: #000000; stroke-width: 0.6"/>
      </g>
     </g>
    </g>
    <g id="ytick_26">
     <g id="line2d_40">
      <g>
       <use xlink:href="#m5bbd892004" x="52.345938" y="157.482197" style="stroke: #000000; stroke-width: 0.6"/>
      </g>
     </g>
    </g>
    <g id="ytick_27">
     <g id="line2d_41">
      <g>
       <use xlink:href="#m5bbd892004" x="52.345938" y="150.173636" style="stroke: #000000; stroke-width: 0.6"/>
      </g>
     </g>
    </g>
    <g id="ytick_28">
     <g id="line2d_42">
      <g>
       <use xlink:href="#m5bbd892004" x="52.345938" y="144.504676" style="stroke: #000000; stroke-width: 0.6"/>
      </g>
     </g>
    </g>
    <g id="ytick_29">
     <g id="line2d_43">
      <g>
       <use xlink:href="#m5bbd892004" x="52.345938" y="139.872798" style="stroke: #000000; stroke-width: 0.6"/>
      </g>
     </g>
    </g>
    <g id="ytick_30">
     <g id="line2d_44">
      <g>
       <use xlink:href="#m5bbd892004" x="52.345938" y="135.956601" style="stroke: #000000; stroke-width: 0.6"/>
      </g>
     </g>
    </g>
    <g id="ytick_31">
     <g id="line2d_45">
      <g>
       <use xlink:href="#m5bbd892004" x="52.345938" y="132.564237" style="stroke: #000000; stroke-width: 0.6"/>
      </g>
     </g>
    </g>
    <g id="ytick_32">
     <g id="line2d_46">
      <g>
       <use xlink:href="#m5bbd892004" x="52.345938" y="129.57196" style="stroke: #000000; stroke-width: 0.6"/>
      </g>
     </g>
    </g>
    <g id="ytick_33">
     <g id="line2d_47">
      <g>
       <use xlink:href="#m5bbd892004" x="52.345938" y="109.285877" style="stroke: #000000; stroke-width: 0.6"/>
      </g>
     </g>
    </g>
    <g id="ytick_34">
     <g id="line2d_48">
      <g>
       <use xlink:href="#m5bbd892004" x="52.345938" y="98.985039" style="stroke: #000000; stroke-width: 0.6"/>
      </g>
     </g>
    </g>
    <g id="ytick_35">
     <g id="line2d_49">
      <g>
       <use xlink:href="#m5bbd892004" x="52.345938" y="91.676478" style="stroke: #000000; stroke-width: 0.6"/>
      </g>
     </g>
    </g>
    <g id="ytick_36">
     <g id="line2d_50">
      <g>
       <use xlink:href="#m5bbd892004" x="52.345938" y="86.007517" style="stroke: #000000; stroke-width: 0.6"/>
      </g>
     </g>
    </g>
    <g id="ytick_37">
     <g id="line2d_51">
      <g>
       <use xlink:href="#m5bbd892004" x="52.345938" y="81.375639" style="stroke: #000000; stroke-width: 0.6"/>
      </g>
     </g>
    </g>
    <g id="ytick_38">
     <g id="line2d_52">
      <g>
       <use xlink:href="#m5bbd892004" x="52.345938" y="77.459443" style="stroke: #000000; stroke-width: 0.6"/>
      </g>
     </g>
    </g>
    <g id="ytick_39">
     <g id="line2d_53">
      <g>
       <use xlink:href="#m5bbd892004" x="52.345938" y="74.067078" style="stroke: #000000; stroke-width: 0.6"/>
      </g>
     </g>
    </g>
    <g id="ytick_40">
     <g id="line2d_54">
      <g>
       <use xlink:href="#m5bbd892004" x="52.345938" y="71.074801" style="stroke: #000000; stroke-width: 0.6"/>
      </g>
     </g>
    </g>
    <g id="ytick_41">
     <g id="line2d_55">
      <g>
       <use xlink:href="#m5bbd892004" x="52.345938" y="50.788719" style="stroke: #000000; stroke-width: 0.6"/>
      </g>
     </g>
    </g>
    <g id="ytick_42">
     <g id="line2d_56">
      <g>
       <use xlink:href="#m5bbd892004" x="52.345938" y="40.48788" style="stroke: #000000; stroke-width: 0.6"/>
      </g>
     </g>
    </g>
    <g id="ytick_43">
     <g id="line2d_57">
      <g>
       <use xlink:href="#m5bbd892004" x="52.345938" y="33.179319" style="stroke: #000000; stroke-width: 0.6"/>
      </g>
     </g>
    </g>
    <g id="text_16">
     <!-- Time (ms, median) -->
     <g transform="translate(15.558281 223.870469) rotate(-90) scale(0.11 -0.11)">
      <defs>
       <path id="DejaVuSans-54" d="M -19 4666 
L 3928 4666 
L 3928 4134 
L 2272 4134 
L 2272 0 
L 1638 0 
L 1638 4134 
L -19 4134 
L -19 4666 
z
" transform="scale(0.015625)"/>
       <path id="DejaVuSans-6d" d="M 3328 2828 
Q 3544 3216 3844 3400 
Q 4144 3584 4550 3584 
Q 5097 3584 5394 3201 
Q 5691 2819 5691 2113 
L 5691 0 
L 5113 0 
L 5113 2094 
Q 5113 2597 4934 2840 
Q 4756 3084 4391 3084 
Q 3944 3084 3684 2787 
Q 3425 2491 3425 1978 
L 3425 0 
L 2847 0 
L 2847 2094 
Q 2847 2600 2669 2842 
Q 2491 3084 2119 3084 
Q 1678 3084 1418 2786 
Q 1159 2488 1159 1978 
L 1159 0 
L 581 0 
L 581 3500 
L 1159 3500 
L 1159 2956 
Q 1356 3278 1631 3431 
Q 1906 3584 2284 3584 
Q 2666 3584 2933 3390 
Q 3200 3197 3328 2828 
z
" transform="scale(0.015625)"/>
       <path id="DejaVuSans-28" d="M 1984 4856 
Q 1566 4138 1362 3434 
Q 1159 2731 1159 2009 
Q 1159 1288 1364 580 
Q 1569 -128 1984 -844 
L 1484 -844 
Q 1016 -109 783 600 
Q 550 1309 550 2009 
Q 550 2706 781 3412 
Q 1013 4119 1484 4856 
L 1984 4856 
z
" transform="scale(0.015625)"/>
       <path id="DejaVuSans-73" d="M 2834 3397 
L 2834 2853 
Q 2591 2978 2328 3040 
Q 2066 3103 1784 3103 
Q 1356 3103 1142 2972 
Q 928 2841 928 2578 
Q 928 2378 1081 2264 
Q 1234 2150 1697 2047 
L 1894 2003 
Q 2506 1872 2764 1633 
Q 3022 1394 3022 966 
Q 3022 478 2636 193 
Q 2250 -91 1575 -91 
Q 1294 -91 989 -36 
Q 684 19 347 128 
L 347 722 
Q 666 556 975 473 
Q 1284 391 1588 391 
Q 1994 391 2212 530 
Q 2431 669 2431 922 
Q 2431 1156 2273 1281 
Q 2116 1406 1581 1522 
L 1381 1569 
Q 847 1681 609 1914 
Q 372 2147 372 2553 
Q 372 3047 722 3315 
Q 1072 3584 1716 3584 
Q 2034 3584 2315 3537 
Q 2597 3491 2834 3397 
z
" transform="scale(0.015625)"/>
       <path id="DejaVuSans-2c" d="M 750 794 
L 1409 794 
L 1409 256 
L 897 -744 
L 494 -744 
L 750 256 
L 750 794 
z
" transform="scale(0.015625)"/>
       <path id="DejaVuSans-6e" d="M 3513 2113 
L 3513 0 
L 2938 0 
L 2938 2094 
Q 2938 2591 2744 2837 
Q 2550 3084 2163 3084 
Q 1697 3084 1428 2787 
Q 1159 2491 1159 1978 
L 1159 0 
L 581 0 
L 581 3500 
L 1159 3500 
L 1159 2956 
Q 1366 3272 1645 3428 
Q 1925 3584 2291 3584 
Q 2894 3584 3203 3211 
Q 3513 2838 3513 2113 
z
" transform="scale(0.015625)"/>
       <path id="DejaVuSans-29" d="M 513 4856 
L 1013 4856 
Q 1481 4119 1714 3412 
Q 1947 2706 1947 2009 
Q 1947 1309 1714 600 
Q 1481 -109 1013 -844 
L 513 -844 
Q 928 -128 1133 580 
Q 1338 1288 1338 2009 
Q 1338 2731 1133 3434 
Q 928 4138 513 4856 
z
" transform="scale(0.015625)"/>
      </defs>
      <use xlink:href="#DejaVuSans-54"/>
      <use xlink:href="#DejaVuSans-69" transform="translate(57.958984 0)"/>
      <use xlink:href="#DejaVuSans-6d" transform="translate(85.742188 0)"/>
      <use xlink:href="#DejaVuSans-65" transform="translate(183.154297 0)"/>
      <use xlink:href="#DejaVuSans-20" transform="translate(244.677734 0)"/>
      <use xlink:href="#DejaVuSans-28" transform="translate(276.464844 0)"/>
      <use xlink:href="#DejaVuSans-6d" transform="translate(315.478516 0)"/>
      <use xlink:href="#DejaVuSans-73" transform="translate(412.890625 0)"/>
      <use xlink:href="#DejaVuSans-2c" transform="translate(464.990234 0)"/>
      <use xlink:href="#DejaVuSans-20" transform="translate(496.777344 0)"/>
      <use xlink:href="#DejaVuSans-6d" transform="translate(528.564453 0)"/>
      <use xlink:href="#DejaVuSans-65" transform="translate(625.976562 0)"/>
      <use xlink:href="#DejaVuSans-64" transform="translate(687.5 0)"/>
      <use xlink:href="#DejaVuSans-69" transform="translate(750.976562 0)"/>
      <use xlink:href="#DejaVuSans-61" transform="translate(778.759766 0)"/>
      <use xlink:href="#DejaVuSans-6e" transform="translate(840.039062 0)"/>
      <use xlink:href="#DejaVuSans-29" transform="translate(903.417969 0)"/>
     </g>
    </g>
   </g>
   <g id="patch_3">
    <path d="M 82.014481 58682.550984 
L 98.967934 58682.550984 
L 98.967934 279.108392 
L 82.014481 279.108392 
z
" clip-path="url(#p9f3ce66644)" style="fill: #6b7280; stroke: #ffffff; stroke-linejoin: miter"/>
   </g>
   <g id="patch_4">
    <path d="M 149.828293 58682.550984 
L 166.781746 58682.550984 
L 166.781746 293.838677 
L 149.828293 293.838677 
z
" clip-path="url(#p9f3ce66644)" style="fill: #6b7280; stroke: #ffffff; stroke-linejoin: miter"/>
   </g>
   <g id="patch_5">
    <path d="M 217.642106 58682.550984 
L 234.595559 58682.550984 
L 234.595559 284.777353 
L 217.642106 284.777353 
z
" clip-path="url(#p9f3ce66644)" style="fill: #6b7280; stroke: #ffffff; stroke-linejoin: miter"/>
   </g>
   <g id="patch_6">
    <path d="M 285.455918 58682.550984 
L 302.409371 58682.550984 
L 302.409371 297.754874 
L 285.455918 297.754874 
z
" clip-path="url(#p9f3ce66644)" style="fill: #6b7280; stroke: #ffffff; stroke-linejoin: miter"/>
   </g>
   <g id="patch_7">
    <path d="M 353.269731 58682.550984 
L 370.223184 58682.550984 
L 370.223184 278.11199 
L 353.269731 278.11199 
z
" clip-path="url(#p9f3ce66644)" style="fill: #6b7280; stroke: #ffffff; stroke-linejoin: miter"/>
   </g>
   <g id="patch_8">
    <path d="M 421.083543 58682.550984 
L 438.036997 58682.550984 
L 438.036997 276.229278 
L 421.083543 276.229278 
z
" clip-path="url(#p9f3ce66644)" style="fill: #6b7280; stroke: #ffffff; stroke-linejoin: miter"/>
   </g>
   <g id="patch_9">
    <path d="M 488.897356 58682.550984 
L 505.850809 58682.550984 
L 505.850809 240.118984 
L 488.897356 240.118984 
z
" clip-path="url(#p9f3ce66644)" style="fill: #6b7280; stroke: #ffffff; stroke-linejoin: miter"/>
   </g>
   <g id="patch_10">
    <path d="M 556.711169 58682.550984 
L 573.664622 58682.550984 
L 573.664622 188.29595 
L 556.711169 188.29595 
z
" clip-path="url(#p9f3ce66644)" style="fill: #6b7280; stroke: #ffffff; stroke-linejoin: miter"/>
   </g>
   <g id="patch_11">
    <path d="M 624.524981 58682.550984 
L 641.478434 58682.550984 
L 641.478434 136.659427 
L 624.524981 136.659427 
z
" clip-path="url(#p9f3ce66644)" style="fill: #6b7280; stroke: #ffffff; stroke-linejoin: miter"/>
   </g>
   <g id="patch_12">
    <path d="M 98.967934 58682.550984 
L 115.921387 58682.550984 
L 115.921387 216.064181 
L 98.967934 216.064181 
z
" clip-path="url(#p9f3ce66644)" style="fill: #2563eb; stroke: #ffffff; stroke-linejoin: miter"/>
   </g>
   <g id="patch_13">
    <path d="M 166.781746 58682.550984 
L 183.735199 58682.550984 
L 183.735199 218.468548 
L 166.781746 218.468548 
z
" clip-path="url(#p9f3ce66644)" style="fill: #2563eb; stroke: #ffffff; stroke-linejoin: miter"/>
   </g>
   <g id="patch_14">
    <path d="M 234.595559 58682.550984 
L 251.549012 58682.550984 
L 251.549012 219.614832 
L 234.595559 219.614832 
z
" clip-path="url(#p9f3ce66644)" style="fill: #2563eb; stroke: #ffffff; stroke-linejoin: miter"/>
   </g>
   <g id="patch_15">
    <path d="M 302.409371 58682.550984 
L 319.362825 58682.550984 
L 319.362825 218.375318 
L 302.409371 218.375318 
z
" clip-path="url(#p9f3ce66644)" style="fill: #2563eb; stroke: #ffffff; stroke-linejoin: miter"/>
   </g>
   <g id="patch_16">
    <path d="M 370.223184 58682.550984 
L 387.176637 58682.550984 
L 387.176637 228.536951 
L 370.223184 228.536951 
z
" clip-path="url(#p9f3ce66644)" style="fill: #2563eb; stroke: #ffffff; stroke-linejoin: miter"/>
   </g>
   <g id="patch_17">
    <path d="M 438.036997 58682.550984 
L 454.99045 58682.550984 
L 454.99045 213.404497 
L 438.036997 213.404497 
z
" clip-path="url(#p9f3ce66644)" style="fill: #2563eb; stroke: #ffffff; stroke-linejoin: miter"/>
   </g>
   <g id="patch_18">
    <path d="M 505.850809 58682.550984 
L 522.804262 58682.550984 
L 522.804262 172.152066 
L 505.850809 172.152066 
z
" clip-path="url(#p9f3ce66644)" style="fill: #2563eb; stroke: #ffffff; stroke-linejoin: miter"/>
   </g>
   <g id="patch_19">
    <path d="M 573.664622 58682.550984 
L 590.618075 58682.550984 
L 590.618075 119.543564 
L 573.664622 119.543564 
z
" clip-path="url(#p9f3ce66644)" style="fill: #2563eb; stroke: #ffffff; stroke-linejoin: miter"/>
   </g>
   <g id="patch_20">
    <path d="M 641.478434 58682.550984 
L 658.431887 58682.550984 
L 658.431887 60.547833 
L 641.478434 60.547833 
z
" clip-path="url(#p9f3ce66644)" style="fill: #2563eb; stroke: #ffffff; stroke-linejoin: miter"/>
   </g>
   <g id="patch_21">
    <path d="M 115.921387 58682.550984 
L 132.87484 58682.550984 
L 132.87484 214.024161 
L 115.921387 214.024161 
z
" clip-path="url(#p9f3ce66644)" style="fill: #9333ea; stroke: #ffffff; stroke-linejoin: miter"/>
   </g>
   <g id="patch_22">
    <path d="M 183.735199 58682.550984 
L 200.688653 58682.550984 
L 200.688653 215.726568 
L 183.735199 215.726568 
z
" clip-path="url(#p9f3ce66644)" style="fill: #9333ea; stroke: #ffffff; stroke-linejoin: miter"/>
   </g>
   <g id="patch_23">
    <path d="M 251.549012 58682.550984 
L 268.502465 58682.550984 
L 268.502465 218.28243 
L 251.549012 218.28243 
z
" clip-path="url(#p9f3ce66644)" style="fill: #9333ea; stroke: #ffffff; stroke-linejoin: miter"/>
   </g>
   <g id="patch_24">
    <path d="M 319.362825 58682.550984 
L 336.316278 58682.550984 
L 336.316278 219.81101 
L 319.362825 219.81101 
z
" clip-path="url(#p9f3ce66644)" style="fill: #9333ea; stroke: #ffffff; stroke-linejoin: miter"/>
   </g>
   <g id="patch_25">
    <path d="M 387.176637 58682.550984 
L 404.13009 58682.550984 
L 404.13009 226.923393 
L 387.176637 226.923393 
z
" clip-path="url(#p9f3ce66644)" style="fill: #9333ea; stroke: #ffffff; stroke-linejoin: miter"/>
   </g>
   <g id="patch_26">
    <path d="M 454.99045 58682.550984 
L 471.943903 58682.550984 
L 471.943903 217.193477 
L 454.99045 217.193477 
z
" clip-path="url(#p9f3ce66644)" style="fill: #9333ea; stroke: #ffffff; stroke-linejoin: miter"/>
   </g>
   <g id="patch_27">
    <path d="M 522.804262 58682.550984 
L 539.757715 58682.550984 
L 539.757715 148.124523 
L 522.804262 148.124523 
z
" clip-path="url(#p9f3ce66644)" style="fill: #9333ea; stroke: #ffffff; stroke-linejoin: miter"/>
   </g>
   <g id="patch_28">
    <path d="M 590.618075 58682.550984 
L 607.571528 58682.550984 
L 607.571528 104.381306 
L 590.618075 104.381306 
z
" clip-path="url(#p9f3ce66644)" style="fill: #9333ea; stroke: #ffffff; stroke-linejoin: miter"/>
   </g>
   <g id="patch_29">
    <path d="M 658.431887 58682.550984 
L 675.385341 58682.550984 
L 675.385341 45.312447 
L 658.431887 45.312447 
z
" clip-path="url(#p9f3ce66644)" style="fill: #9333ea; stroke: #ffffff; stroke-linejoin: miter"/>
   </g>
   <g id="LineCollection_1">
    <path d="M 90.491207 297.754874 
L 90.491207 253.316464 
" clip-path="url(#p9f3ce66644)" style="fill: none; stroke: #374151; stroke-width: 0.8"/>
    <path d="M 158.30502 299.965398 
L 158.30502 281.226702 
" clip-path="url(#p9f3ce66644)" style="fill: none; stroke: #374151; stroke-width: 0.8"/>
    <path d="M 226.118832 290.446313 
L 226.118832 281.226702 
" clip-path="url(#p9f3ce66644)" style="fill: none; stroke: #374151; stroke-width: 0.8"/>
    <path d="M 293.932645 299.965398 
L 293.932645 295.72139 
" clip-path="url(#p9f3ce66644)" style="fill: none; stroke: #374151; stroke-width: 0.8"/>
    <path d="M 361.746457 292.085914 
L 361.746457 274.476515 
" clip-path="url(#p9f3ce66644)" style="fill: none; stroke: #374151; stroke-width: 0.8"/>
    <path d="M 429.56027 280.145475 
L 429.56027 268.471059 
" clip-path="url(#p9f3ce66644)" style="fill: none; stroke: #374151; stroke-width: 0.8"/>
    <path d="M 497.374083 241.238328 
L 497.374083 217.5513 
" clip-path="url(#p9f3ce66644)" style="fill: none; stroke: #374151; stroke-width: 0.8"/>
    <path d="M 565.187895 192.532192 
L 565.187895 185.647764 
" clip-path="url(#p9f3ce66644)" style="fill: none; stroke: #374151; stroke-width: 0.8"/>
    <path d="M 633.001708 137.160573 
L 633.001708 136.325829 
" clip-path="url(#p9f3ce66644)" style="fill: none; stroke: #374151; stroke-width: 0.8"/>
   </g>
   <g id="line2d_58">
    <defs>
     <path id="mafd49019bf" d="M 3 0 
L -3 -0 
" style="stroke: #374151"/>
    </defs>
    <g clip-path="url(#p9f3ce66644)">
     <use xlink:href="#mafd49019bf" x="90.491207" y="297.754874" style="fill: #1f77b4; stroke: #374151"/>
     <use xlink:href="#mafd49019bf" x="158.30502" y="299.965398" style="fill: #1f77b4; stroke: #374151"/>
     <use xlink:href="#mafd49019bf" x="226.118832" y="290.446313" style="fill: #1f77b4; stroke: #374151"/>
     <use xlink:href="#mafd49019bf" x="293.932645" y="299.965398" style="fill: #1f77b4; stroke: #374151"/>
     <use xlink:href="#mafd49019bf" x="361.746457" y="292.085914" style="fill: #1f77b4; stroke: #374151"/>
     <use xlink:href="#mafd49019bf" x="429.56027" y="280.145475" style="fill: #1f77b4; stroke: #374151"/>
     <use xlink:href="#mafd49019bf" x="497.374083" y="241.238328" style="fill: #1f77b4; stroke: #374151"/>
     <use xlink:href="#mafd49019bf" x="565.187895" y="192.532192" style="fill: #1f77b4; stroke: #374151"/>
     <use xlink:href="#mafd49019bf" x="633.001708" y="137.160573" style="fill: #1f77b4; stroke: #374151"/>
    </g>
   </g>
   <g id="line2d_59">
    <g clip-path="url(#p9f3ce66644)">
     <use xlink:href="#mafd49019bf" x="90.491207" y="253.316464" style="fill: #1f77b4; stroke: #374151"/>
     <use xlink:href="#mafd49019bf" x="158.30502" y="281.226702" style="fill: #1f77b4; stroke: #374151"/>
     <use xlink:href="#mafd49019bf" x="226.118832" y="281.226702" style="fill: #1f77b4; stroke: #374151"/>
     <use xlink:href="#mafd49019bf" x="293.932645" y="295.72139" style="fill: #1f77b4; stroke: #374151"/>
     <use xlink:href="#mafd49019bf" x="361.746457" y="274.476515" style="fill: #1f77b4; stroke: #374151"/>
     <use xlink:href="#mafd49019bf" x="429.56027" y="268.471059" style="fill: #1f77b4; stroke: #374151"/>
     <use xlink:href="#mafd49019bf" x="497.374083" y="217.5513" style="fill: #1f77b4; stroke: #374151"/>
     <use xlink:href="#mafd49019bf" x="565.187895" y="185.647764" style="fill: #1f77b4; stroke: #374151"/>
     <use xlink:href="#mafd49019bf" x="633.001708" y="136.325829" style="fill: #1f77b4; stroke: #374151"/>
    </g>
   </g>
   <g id="LineCollection_2">
    <path d="M 107.44466 219.420157 
L 107.44466 213.945872 
" clip-path="url(#p9f3ce66644)" style="fill: none; stroke: #1e40af; stroke-width: 0.8"/>
    <path d="M 175.258473 222.183178 
L 175.258473 211.990677 
" clip-path="url(#p9f3ce66644)" style="fill: none; stroke: #1e40af; stroke-width: 0.8"/>
    <path d="M 243.072285 221.542682 
L 243.072285 218.189879 
" clip-path="url(#p9f3ce66644)" style="fill: none; stroke: #1e40af; stroke-width: 0.8"/>
    <path d="M 310.886098 221.754392 
L 310.886098 191.900773 
" clip-path="url(#p9f3ce66644)" style="fill: none; stroke: #1e40af; stroke-width: 0.8"/>
    <path d="M 378.699911 230.111849 
L 378.699911 223.97458 
" clip-path="url(#p9f3ce66644)" style="fill: none; stroke: #1e40af; stroke-width: 0.8"/>
    <path d="M 446.513723 216.579164 
L 446.513723 211.918401 
" clip-path="url(#p9f3ce66644)" style="fill: none; stroke: #1e40af; stroke-width: 0.8"/>
    <path d="M 514.327536 174.193095 
L 514.327536 171.016211 
" clip-path="url(#p9f3ce66644)" style="fill: none; stroke: #1e40af; stroke-width: 0.8"/>
    <path d="M 582.141348 120.008103 
L 582.141348 119.422117 
" clip-path="url(#p9f3ce66644)" style="fill: none; stroke: #1e40af; stroke-width: 0.8"/>
    <path d="M 649.955161 60.627788 
L 649.955161 60.028503 
" clip-path="url(#p9f3ce66644)" style="fill: none; stroke: #1e40af; stroke-width: 0.8"/>
   </g>
   <g id="line2d_60">
    <defs>
     <path id="mdd8e1d8fe7" d="M 3 0 
L -3 -0 
" style="stroke: #1e40af"/>
    </defs>
    <g clip-path="url(#p9f3ce66644)">
     <use xlink:href="#mdd8e1d8fe7" x="107.44466" y="219.420157" style="fill: #1f77b4; stroke: #1e40af"/>
     <use xlink:href="#mdd8e1d8fe7" x="175.258473" y="222.183178" style="fill: #1f77b4; stroke: #1e40af"/>
     <use xlink:href="#mdd8e1d8fe7" x="243.072285" y="221.542682" style="fill: #1f77b4; stroke: #1e40af"/>
     <use xlink:href="#mdd8e1d8fe7" x="310.886098" y="221.754392" style="fill: #1f77b4; stroke: #1e40af"/>
     <use xlink:href="#mdd8e1d8fe7" x="378.699911" y="230.111849" style="fill: #1f77b4; stroke: #1e40af"/>
     <use xlink:href="#mdd8e1d8fe7" x="446.513723" y="216.579164" style="fill: #1f77b4; stroke: #1e40af"/>
     <use xlink:href="#mdd8e1d8fe7" x="514.327536" y="174.193095" style="fill: #1f77b4; stroke: #1e40af"/>
     <use xlink:href="#mdd8e1d8fe7" x="582.141348" y="120.008103" style="fill: #1f77b4; stroke: #1e40af"/>
     <use xlink:href="#mdd8e1d8fe7" x="649.955161" y="60.627788" style="fill: #1f77b4; stroke: #1e40af"/>
    </g>
   </g>
   <g id="line2d_61">
    <g clip-path="url(#p9f3ce66644)">
     <use xlink:href="#mdd8e1d8fe7" x="107.44466" y="213.945872" style="fill: #1f77b4; stroke: #1e40af"/>
     <use xlink:href="#mdd8e1d8fe7" x="175.258473" y="211.990677" style="fill: #1f77b4; stroke: #1e40af"/>
     <use xlink:href="#mdd8e1d8fe7" x="243.072285" y="218.189879" style="fill: #1f77b4; stroke: #1e40af"/>
     <use xlink:href="#mdd8e1d8fe7" x="310.886098" y="191.900773" style="fill: #1f77b4; stroke: #1e40af"/>
     <use xlink:href="#mdd8e1d8fe7" x="378.699911" y="223.97458" style="fill: #1f77b4; stroke: #1e40af"/>
     <use xlink:href="#mdd8e1d8fe7" x="446.513723" y="211.918401" style="fill: #1f77b4; stroke: #1e40af"/>
     <use xlink:href="#mdd8e1d8fe7" x="514.327536" y="171.016211" style="fill: #1f77b4; stroke: #1e40af"/>
     <use xlink:href="#mdd8e1d8fe7" x="582.141348" y="119.422117" style="fill: #1f77b4; stroke: #1e40af"/>
     <use xlink:href="#mdd8e1d8fe7" x="649.955161" y="60.028503" style="fill: #1f77b4; stroke: #1e40af"/>
    </g>
   </g>
   <g id="LineCollection_3">
    <path d="M 124.398113 219.81101 
L 124.398113 206.134225 
" clip-path="url(#p9f3ce66644)" style="fill: none; stroke: #6b21a8; stroke-width: 0.8"/>
    <path d="M 192.211926 219.517308 
L 192.211926 211.990677 
" clip-path="url(#p9f3ce66644)" style="fill: none; stroke: #6b21a8; stroke-width: 0.8"/>
    <path d="M 260.025739 221.021001 
L 260.025739 202.054335 
" clip-path="url(#p9f3ce66644)" style="fill: none; stroke: #6b21a8; stroke-width: 0.8"/>
    <path d="M 327.839551 226.664156 
L 327.839551 210.927551 
" clip-path="url(#p9f3ce66644)" style="fill: none; stroke: #6b21a8; stroke-width: 0.8"/>
    <path d="M 395.653364 231.167401 
L 395.653364 213.558001 
" clip-path="url(#p9f3ce66644)" style="fill: none; stroke: #6b21a8; stroke-width: 0.8"/>
    <path d="M 463.467176 222.951422 
L 463.467176 171.204451 
" clip-path="url(#p9f3ce66644)" style="fill: none; stroke: #6b21a8; stroke-width: 0.8"/>
    <path d="M 531.280989 164.33199 
L 531.280989 136.592356 
" clip-path="url(#p9f3ce66644)" style="fill: none; stroke: #6b21a8; stroke-width: 0.8"/>
    <path d="M 599.094801 107.23442 
L 599.094801 99.265186 
" clip-path="url(#p9f3ce66644)" style="fill: none; stroke: #6b21a8; stroke-width: 0.8"/>
    <path d="M 666.908614 47.394179 
L 666.908614 44.110852 
" clip-path="url(#p9f3ce66644)" style="fill: none; stroke: #6b21a8; stroke-width: 0.8"/>
   </g>
   <g id="line2d_62">
    <defs>
     <path id="ma626585b6d" d="M 3 0 
L -3 -0 
" style="stroke: #6b21a8"/>
    </defs>
    <g clip-path="url(#p9f3ce66644)">
     <use xlink:href="#ma626585b6d" x="124.398113" y="219.81101" style="fill: #1f77b4; stroke: #6b21a8"/>
     <use xlink:href="#ma626585b6d" x="192.211926" y="219.517308" style="fill: #1f77b4; stroke: #6b21a8"/>
     <use xlink:href="#ma626585b6d" x="260.025739" y="221.021001" style="fill: #1f77b4; stroke: #6b21a8"/>
     <use xlink:href="#ma626585b6d" x="327.839551" y="226.664156" style="fill: #1f77b4; stroke: #6b21a8"/>
     <use xlink:href="#ma626585b6d" x="395.653364" y="231.167401" style="fill: #1f77b4; stroke: #6b21a8"/>
     <use xlink:href="#ma626585b6d" x="463.467176" y="222.951422" style="fill: #1f77b4; stroke: #6b21a8"/>
     <use xlink:href="#ma626585b6d" x="531.280989" y="164.33199" style="fill: #1f77b4; stroke: #6b21a8"/>
     <use xlink:href="#ma626585b6d" x="599.094801" y="107.23442" style="fill: #1f77b4; stroke: #6b21a8"/>
     <use xlink:href="#ma626585b6d" x="666.908614" y="47.394179" style="fill: #1f77b4; stroke: #6b21a8"/>
    </g>
   </g>
   <g id="line2d_63">
    <g clip-path="url(#p9f3ce66644)">
     <use xlink:href="#ma626585b6d" x="124.398113" y="206.134225" style="fill: #1f77b4; stroke: #6b21a8"/>
     <use xlink:href="#ma626585b6d" x="192.211926" y="211.990677" style="fill: #1f77b4; stroke: #6b21a8"/>
     <use xlink:href="#ma626585b6d" x="260.025739" y="202.054335" style="fill: #1f77b4; stroke: #6b21a8"/>
     <use xlink:href="#ma626585b6d" x="327.839551" y="210.927551" style="fill: #1f77b4; stroke: #6b21a8"/>
     <use xlink:href="#ma626585b6d" x="395.653364" y="213.558001" style="fill: #1f77b4; stroke: #6b21a8"/>
     <use xlink:href="#ma626585b6d" x="463.467176" y="171.204451" style="fill: #1f77b4; stroke: #6b21a8"/>
     <use xlink:href="#ma626585b6d" x="531.280989" y="136.592356" style="fill: #1f77b4; stroke: #6b21a8"/>
     <use xlink:href="#ma626585b6d" x="599.094801" y="99.265186" style="fill: #1f77b4; stroke: #6b21a8"/>
     <use xlink:href="#ma626585b6d" x="666.908614" y="44.110852" style="fill: #1f77b4; stroke: #6b21a8"/>
    </g>
   </g>
   <g id="patch_30">
    <path d="M 52.345938 312.758125 
L 52.345938 31.318125 
" style="fill: none; stroke: #000000; stroke-width: 0.8; stroke-linejoin: miter; stroke-linecap: square"/>
   </g>
   <g id="patch_31">
    <path d="M 52.345937 312.758125 
L 705.053884 312.758125 
" style="fill: none; stroke: #000000; stroke-width: 0.8; stroke-linejoin: miter; stroke-linecap: square"/>
   </g>
   <g id="text_17">
    <!-- HTTP Request Through Tunnel — Median of 5 runs (warmup=1, error bars = min/max) -->
    <g transform="translate(88.446161 16.318125) scale(0.12 -0.12)">
     <defs>
      <path id="DejaVuSans-Bold-48" d="M 588 4666 
L 1791 4666 
L 1791 2888 
L 3566 2888 
L 3566 4666 
L 4769 4666 
L 4769 0 
L 3566 0 
L 3566 1978 
L 1791 1978 
L 1791 0 
L 588 0 
L 588 4666 
z
" transform="scale(0.015625)"/>
      <path id="DejaVuSans-Bold-54" d="M 31 4666 
L 4331 4666 
L 4331 3756 
L 2784 3756 
L 2784 0 
L 1581 0 
L 1581 3756 
L 31 3756 
L 31 4666 
z
" transform="scale(0.015625)"/>
      <path id="DejaVuSans-Bold-50" d="M 588 4666 
L 2584 4666 
Q 3475 4666 3951 4270 
Q 4428 3875 4428 3144 
Q 4428 2409 3951 2014 
Q 3475 1619 2584 1619 
L 1791 1619 
L 1791 0 
L 588 0 
L 588 4666 
z
M 1791 3794 
L 1791 2491 
L 2456 2491 
Q 2806 2491 2997 2661 
Q 3188 2831 3188 3144 
Q 3188 3456 2997 3625 
Q 2806 3794 2456 3794 
L 1791 3794 
z
" transform="scale(0.015625)"/>
      <path id="DejaVuSans-Bold-20" transform="scale(0.015625)"/>
      <path id="DejaVuSans-Bold-52" d="M 2297 2597 
Q 2675 2597 2839 2737 
Q 3003 2878 3003 3200 
Q 3003 3519 2839 3656 
Q 2675 3794 2297 3794 
L 1791 3794 
L 1791 2597 
L 2297 2597 
z
M 1791 1766 
L 1791 0 
L 588 0 
L 588 4666 
L 2425 4666 
Q 3347 4666 3776 4356 
Q 4206 4047 4206 3378 
Q 4206 2916 3982 2619 
Q 3759 2322 3309 2181 
Q 3556 2125 3751 1926 
Q 3947 1728 4147 1325 
L 4800 0 
L 3519 0 
L 2950 1159 
Q 2778 1509 2601 1637 
Q 2425 1766 2131 1766 
L 1791 1766 
z
" transform="scale(0.015625)"/>
      <path id="DejaVuSans-Bold-65" d="M 4031 1759 
L 4031 1441 
L 1416 1441 
Q 1456 1047 1700 850 
Q 1944 653 2381 653 
Q 2734 653 3104 758 
Q 3475 863 3866 1075 
L 3866 213 
Q 3469 63 3072 -14 
Q 2675 -91 2278 -91 
Q 1328 -91 801 392 
Q 275 875 275 1747 
Q 275 2603 792 3093 
Q 1309 3584 2216 3584 
Q 3041 3584 3536 3087 
Q 4031 2591 4031 1759 
z
M 2881 2131 
Q 2881 2450 2695 2645 
Q 2509 2841 2209 2841 
Q 1884 2841 1681 2658 
Q 1478 2475 1428 2131 
L 2881 2131 
z
" transform="scale(0.015625)"/>
      <path id="DejaVuSans-Bold-71" d="M 2181 2772 
Q 1825 2772 1636 2509 
Q 1447 2247 1447 1747 
Q 1447 1247 1636 984 
Q 1825 722 2181 722 
Q 2541 722 2730 984 
Q 2919 1247 2919 1747 
Q 2919 2247 2730 2509 
Q 2541 2772 2181 2772 
z
M 2919 506 
Q 2688 197 2409 53 
Q 2131 -91 1766 -91 
Q 1119 -91 703 423 
Q 288 938 288 1747 
Q 288 2556 703 3067 
Q 1119 3578 1766 3578 
Q 2131 3578 2409 3434 
Q 2688 3291 2919 2981 
L 2919 3500 
L 4044 3500 
L 4044 -1331 
L 2919 -1331 
L 2919 506 
z
" transform="scale(0.015625)"/>
      <path id="DejaVuSans-Bold-75" d="M 500 1363 
L 500 3500 
L 1625 3500 
L 1625 3150 
Q 1625 2866 1622 2436 
Q 1619 2006 1619 1863 
Q 1619 1441 1641 1255 
Q 1663 1069 1716 984 
Q 1784 875 1895 815 
Q 2006 756 2150 756 
Q 2500 756 2700 1025 
Q 2900 1294 2900 1772 
L 2900 3500 
L 4019 3500 
L 4019 0 
L 2900 0 
L 2900 506 
Q 2647 200 2364 54 
Q 2081 -91 1741 -91 
Q 1134 -91 817 281 
Q 500 653 500 1363 
z
" transform="scale(0.015625)"/>
      <path id="DejaVuSans-Bold-73" d="M 3272 3391 
L 3272 2541 
Q 2913 2691 2578 2766 
Q 2244 2841 1947 2841 
Q 1628 2841 1473 2761 
Q 1319 2681 1319 2516 
Q 1319 2381 1436 2309 
Q 1553 2238 1856 2203 
L 2053 2175 
Q 2913 2066 3209 1816 
Q 3506 1566 3506 1031 
Q 3506 472 3093 190 
Q 2681 -91 1863 -91 
Q 1516 -91 1145 -36 
Q 775 19 384 128 
L 384 978 
Q 719 816 1070 734 
Q 1422 653 1784 653 
Q 2113 653 2278 743 
Q 2444 834 2444 1013 
Q 2444 1163 2330 1236 
Q 2216 1309 1875 1350 
L 1678 1375 
Q 931 1469 631 1722 
Q 331 1975 331 2491 
Q 331 3047 712 3315 
Q 1094 3584 1881 3584 
Q 2191 3584 2531 3537 
Q 2872 3491 3272 3391 
z
" transform="scale(0.015625)"/>
      <path id="DejaVuSans-Bold-74" d="M 1759 4494 
L 1759 3500 
L 2913 3500 
L 2913 2700 
L 1759 2700 
L 1759 1216 
Q 1759 972 1856 886 
Q 1953 800 2241 800 
L 2816 800 
L 2816 0 
L 1856 0 
Q 1194 0 917 276 
Q 641 553 641 1216 
L 641 2700 
L 84 2700 
L 84 3500 
L 641 3500 
L 641 4494 
L 1759 4494 
z
" transform="scale(0.015625)"/>
      <path id="DejaVuSans-Bold-68" d="M 4056 2131 
L 4056 0 
L 2931 0 
L 2931 347 
L 2931 1625 
Q 2931 2084 2911 2256 
Q 2891 2428 2841 2509 
Q 2775 2619 2662 2680 
Q 2550 2741 2406 2741 
Q 2056 2741 1856 2470 
Q 1656 2200 1656 1722 
L 1656 0 
L 538 0 
L 538 4863 
L 1656 4863 
L 1656 2988 
Q 1909 3294 2193 3439 
Q 2478 3584 2822 3584 
Q 3428 3584 3742 3212 
Q 4056 2841 4056 2131 
z
" transform="scale(0.015625)"/>
      <path id="DejaVuSans-Bold-72" d="M 3138 2547 
Q 2991 2616 2845 2648 
Q 2700 2681 2553 2681 
Q 2122 2681 1889 2404 
Q 1656 2128 1656 1613 
L 1656 0 
L 538 0 
L 538 3500 
L 1656 3500 
L 1656 2925 
Q 1872 3269 2151 3426 
Q 2431 3584 2822 3584 
Q 2878 3584 2943 3579 
Q 3009 3575 3134 3559 
L 3138 2547 
z
" transform="scale(0.015625)"/>
      <path id="DejaVuSans-Bold-6f" d="M 2203 2784 
Q 1831 2784 1636 2517 
Q 1441 2250 1441 1747 
Q 1441 1244 1636 976 
Q 1831 709 2203 709 
Q 2569 709 2762 976 
Q 2956 1244 2956 1747 
Q 2956 2250 2762 2517 
Q 2569 2784 2203 2784 
z
M 2203 3584 
Q 3106 3584 3614 3096 
Q 4122 2609 4122 1747 
Q 4122 884 3614 396 
Q 3106 -91 2203 -91 
Q 1297 -91 786 396 
Q 275 884 275 1747 
Q 275 2609 786 3096 
Q 1297 3584 2203 3584 
z
" transform="scale(0.015625)"/>
      <path id="DejaVuSans-Bold-67" d="M 2919 594 
Q 2688 288 2409 144 
Q 2131 0 1766 0 
Q 1125 0 706 504 
Q 288 1009 288 1791 
Q 288 2575 706 3076 
Q 1125 3578 1766 3578 
Q 2131 3578 2409 3434 
Q 2688 3291 2919 2981 
L 2919 3500 
L 4044 3500 
L 4044 353 
Q 4044 -491 3511 -936 
Q 2978 -1381 1966 -1381 
Q 1638 -1381 1331 -1331 
Q 1025 -1281 716 -1178 
L 716 -306 
Q 1009 -475 1290 -558 
Q 1572 -641 1856 -641 
Q 2406 -641 2662 -400 
Q 2919 -159 2919 353 
L 2919 594 
z
M 2181 2772 
Q 1834 2772 1640 2515 
Q 1447 2259 1447 1791 
Q 1447 1309 1634 1061 
Q 1822 813 2181 813 
Q 2531 813 2725 1069 
Q 2919 1325 2919 1791 
Q 2919 2259 2725 2515 
Q 2531 2772 2181 2772 
z
" transform="scale(0.015625)"/>
      <path id="DejaVuSans-Bold-6e" d="M 4056 2131 
L 4056 0 
L 2931 0 
L 2931 347 
L 2931 1631 
Q 2931 2084 2911 2256 
Q 2891 2428 2841 2509 
Q 2775 2619 2662 2680 
Q 2550 2741 2406 2741 
Q 2056 2741 1856 2470 
Q 1656 2200 1656 1722 
L 1656 0 
L 538 0 
L 538 3500 
L 1656 3500 
L 1656 2988 
Q 1909 3294 2193 3439 
Q 2478 3584 2822 3584 
Q 3428 3584 3742 3212 
Q 4056 2841 4056 2131 
z
" transform="scale(0.015625)"/>
      <path id="DejaVuSans-Bold-6c" d="M 538 4863 
L 1656 4863 
L 1656 0 
L 538 0 
L 538 4863 
z
" transform="scale(0.015625)"/>
      <path id="DejaVuSans-Bold-2014" d="M 344 2156 
L 6056 2156 
L 6056 1350 
L 344 1350 
L 344 2156 
z
" transform="scale(0.015625)"/>
      <path id="DejaVuSans-Bold-4d" d="M 588 4666 
L 2119 4666 
L 3181 2169 
L 4250 4666 
L 5778 4666 
L 5778 0 
L 4641 0 
L 4641 3413 
L 3566 897 
L 2803 897 
L 1728 3413 
L 1728 0 
L 588 0 
L 588 4666 
z
" transform="scale(0.015625)"/>
      <path id="DejaVuSans-Bold-64" d="M 2919 2988 
L 2919 4863 
L 4044 4863 
L 4044 0 
L 2919 0 
L 2919 506 
Q 2688 197 2409 53 
Q 2131 -91 1766 -91 
Q 1119 -91 703 423 
Q 288 938 288 1747 
Q 288 2556 703 3070 
Q 1119 3584 1766 3584 
Q 2128 3584 2408 3439 
Q 2688 3294 2919 2988 
z
M 2181 722 
Q 2541 722 2730 984 
Q 2919 1247 2919 1747 
Q 2919 2247 2730 2509 
Q 2541 2772 2181 2772 
Q 1825 2772 1636 2509 
Q 1447 2247 1447 1747 
Q 1447 1247 1636 984 
Q 1825 722 2181 722 
z
" transform="scale(0.015625)"/>
      <path id="DejaVuSans-Bold-69" d="M 538 3500 
L 1656 3500 
L 1656 0 
L 538 0 
L 538 3500 
z
M 538 4863 
L 1656 4863 
L 1656 3950 
L 538 3950 
L 538 4863 
z
" transform="scale(0.015625)"/>
      <path id="DejaVuSans-Bold-61" d="M 2106 1575 
Q 1756 1575 1579 1456 
Q 1403 1338 1403 1106 
Q 1403 894 1545 773 
Q 1688 653 1941 653 
Q 2256 653 2472 879 
Q 2688 1106 2688 1447 
L 2688 1575 
L 2106 1575 
z
M 3816 1997 
L 3816 0 
L 2688 0 
L 2688 519 
Q 2463 200 2181 54 
Q 1900 -91 1497 -91 
Q 953 -91 614 226 
Q 275 544 275 1050 
Q 275 1666 698 1953 
Q 1122 2241 2028 2241 
L 2688 2241 
L 2688 2328 
Q 2688 2594 2478 2717 
Q 2269 2841 1825 2841 
Q 1466 2841 1156 2769 
Q 847 2697 581 2553 
L 581 3406 
Q 941 3494 1303 3539 
Q 1666 3584 2028 3584 
Q 2975 3584 3395 3211 
Q 3816 2838 3816 1997 
z
" transform="scale(0.015625)"/>
      <path id="DejaVuSans-Bold-66" d="M 2841 4863 
L 2841 4128 
L 2222 4128 
Q 1984 4128 1890 4042 
Q 1797 3956 1797 3744 
L 1797 3500 
L 2753 3500 
L 2753 2700 
L 1797 2700 
L 1797 0 
L 678 0 
L 678 2700 
L 122 2700 
L 122 3500 
L 678 3500 
L 678 3744 
Q 678 4316 997 4589 
Q 1316 4863 1984 4863 
L 2841 4863 
z
" transform="scale(0.015625)"/>
      <path id="DejaVuSans-Bold-35" d="M 678 4666 
L 3669 4666 
L 3669 3781 
L 1638 3781 
L 1638 3059 
Q 1775 3097 1914 3117 
Q 2053 3138 2203 3138 
Q 3056 3138 3531 2711 
Q 4006 2284 4006 1522 
Q 4006 766 3489 337 
Q 2972 -91 2053 -91 
Q 1656 -91 1267 -14 
Q 878 63 494 219 
L 494 1166 
Q 875 947 1217 837 
Q 1559 728 1863 728 
Q 2300 728 2551 942 
Q 2803 1156 2803 1522 
Q 2803 1891 2551 2103 
Q 2300 2316 1863 2316 
Q 1603 2316 1309 2248 
Q 1016 2181 678 2041 
L 678 4666 
z
" transform="scale(0.015625)"/>
      <path id="DejaVuSans-Bold-28" d="M 2413 -844 
L 1484 -844 
Q 1006 -72 778 623 
Q 550 1319 550 2003 
Q 550 2688 779 3389 
Q 1009 4091 1484 4856 
L 2413 4856 
Q 2013 4116 1813 3408 
Q 1613 2700 1613 2009 
Q 1613 1319 1811 609 
Q 2009 -100 2413 -844 
z
" transform="scale(0.015625)"/>
      <path id="DejaVuSans-Bold-77" d="M 225 3500 
L 1313 3500 
L 1900 1088 
L 2491 3500 
L 3425 3500 
L 4013 1113 
L 4603 3500 
L 5691 3500 
L 4769 0 
L 3547 0 
L 2956 2406 
L 2369 0 
L 1147 0 
L 225 3500 
z
" transform="scale(0.015625)"/>
      <path id="DejaVuSans-Bold-6d" d="M 3781 2919 
Q 3994 3244 4286 3414 
Q 4578 3584 4928 3584 
Q 5531 3584 5847 3212 
Q 6163 2841 6163 2131 
L 6163 0 
L 5038 0 
L 5038 1825 
Q 5041 1866 5042 1909 
Q 5044 1953 5044 2034 
Q 5044 2406 4934 2573 
Q 4825 2741 4581 2741 
Q 4263 2741 4089 2478 
Q 3916 2216 3909 1719 
L 3909 0 
L 2784 0 
L 2784 1825 
Q 2784 2406 2684 2573 
Q 2584 2741 2328 2741 
Q 2006 2741 1831 2477 
Q 1656 2213 1656 1722 
L 1656 0 
L 531 0 
L 531 3500 
L 1656 3500 
L 1656 2988 
Q 1863 3284 2130 3434 
Q 2397 3584 2719 3584 
Q 3081 3584 3359 3409 
Q 3638 3234 3781 2919 
z
" transform="scale(0.015625)"/>
      <path id="DejaVuSans-Bold-70" d="M 1656 506 
L 1656 -1331 
L 538 -1331 
L 538 3500 
L 1656 3500 
L 1656 2988 
Q 1888 3294 2169 3439 
Q 2450 3584 2816 3584 
Q 3463 3584 3878 3070 
Q 4294 2556 4294 1747 
Q 4294 938 3878 423 
Q 3463 -91 2816 -91 
Q 2450 -91 2169 54 
Q 1888 200 1656 506 
z
M 2400 2772 
Q 2041 2772 1848 2508 
Q 1656 2244 1656 1747 
Q 1656 1250 1848 986 
Q 2041 722 2400 722 
Q 2759 722 2948 984 
Q 3138 1247 3138 1747 
Q 3138 2247 2948 2509 
Q 2759 2772 2400 2772 
z
" transform="scale(0.015625)"/>
      <path id="DejaVuSans-Bold-3d" d="M 678 3084 
L 4684 3084 
L 4684 2350 
L 678 2350 
L 678 3084 
z
M 678 1663 
L 4684 1663 
L 4684 922 
L 678 922 
L 678 1663 
z
" transform="scale(0.015625)"/>
      <path id="DejaVuSans-Bold-31" d="M 750 831 
L 1813 831 
L 1813 3847 
L 722 3622 
L 722 4441 
L 1806 4666 
L 2950 4666 
L 2950 831 
L 4013 831 
L 4013 0 
L 750 0 
L 750 831 
z
" transform="scale(0.015625)"/>
      <path id="DejaVuSans-Bold-2c" d="M 653 1209 
L 1778 1209 
L 1778 256 
L 1006 -909 
L 341 -909 
L 653 256 
L 653 1209 
z
" transform="scale(0.015625)"/>
      <path id="DejaVuSans-Bold-62" d="M 2400 722 
Q 2759 722 2948 984 
Q 3138 1247 3138 1747 
Q 3138 2247 2948 2509 
Q 2759 2772 2400 2772 
Q 2041 2772 1848 2508 
Q 1656 2244 1656 1747 
Q 1656 1250 1848 986 
Q 2041 722 2400 722 
z
M 1656 2988 
Q 1888 3294 2169 3439 
Q 2450 3584 2816 3584 
Q 3463 3584 3878 3070 
Q 4294 2556 4294 1747 
Q 4294 938 3878 423 
Q 3463 -91 2816 -91 
Q 2450 -91 2169 54 
Q 1888 200 1656 506 
L 1656 0 
L 538 0 
L 538 4863 
L 1656 4863 
L 1656 2988 
z
" transform="scale(0.015625)"/>
      <path id="DejaVuSans-Bold-2f" d="M 1644 4666 
L 2338 4666 
L 691 -594 
L 0 -594 
L 1644 4666 
z
" transform="scale(0.015625)"/>
      <path id="DejaVuSans-Bold-78" d="M 1422 1791 
L 159 3500 
L 1344 3500 
L 2059 2463 
L 2784 3500 
L 3969 3500 
L 2706 1797 
L 4031 0 
L 2847 0 
L 2059 1106 
L 1281 0 
L 97 0 
L 1422 1791 
z
" transform="scale(0.015625)"/>
      <path id="DejaVuSans-Bold-29" d="M 513 -844 
Q 913 -100 1113 609 
Q 1313 1319 1313 2009 
Q 1313 2700 1113 3408 
Q 913 4116 513 4856 
L 1441 4856 
Q 1916 4091 2145 3389 
Q 2375 2688 2375 2003 
Q 2375 1319 2147 623 
Q 1919 -72 1441 -844 
L 513 -844 
z
" transform="scale(0.015625)"/>
     </defs>
     <use xlink:href="#DejaVuSans-Bold-48"/>
     <use xlink:href="#DejaVuSans-Bold-54" transform="translate(83.691406 0)"/>
     <use xlink:href="#DejaVuSans-Bold-54" transform="translate(154.154297 0)"/>
     <use xlink:href="#DejaVuSans-Bold-50" transform="translate(222.367188 0)"/>
     <use xlink:href="#DejaVuSans-Bold-20" transform="translate(295.658203 0)"/>
     <use xlink:href="#DejaVuSans-Bold-52" transform="translate(330.472656 0)"/>
     <use xlink:href="#DejaVuSans-Bold-65" transform="translate(407.474609 0)"/>
     <use xlink:href="#DejaVuSans-Bold-71" transform="translate(475.296875 0)"/>
     <use xlink:href="#DejaVuSans-Bold-75" transform="translate(546.878906 0)"/>
     <use xlink:href="#DejaVuSans-Bold-65" transform="translate(618.070312 0)"/>
     <use xlink:href="#DejaVuSans-Bold-73" transform="translate(685.892578 0)"/>
     <use xlink:href="#DejaVuSans-Bold-74" transform="translate(745.414062 0)"/>
     <use xlink:href="#DejaVuSans-Bold-20" transform="translate(793.216797 0)"/>
     <use xlink:href="#DejaVuSans-Bold-54" transform="translate(828.03125 0)"/>
     <use xlink:href="#DejaVuSans-Bold-68" transform="translate(896.244141 0)"/>
     <use xlink:href="#DejaVuSans-Bold-72" transform="translate(967.435547 0)"/>
     <use xlink:href="#DejaVuSans-Bold-6f" transform="translate(1016.751953 0)"/>
     <use xlink:href="#DejaVuSans-Bold-75" transform="translate(1085.453125 0)"/>
     <use xlink:href="#DejaVuSans-Bold-67" transform="translate(1156.644531 0)"/>
     <use xlink:href="#DejaVuSans-Bold-68" transform="translate(1228.226562 0)"/>
     <use xlink:href="#DejaVuSans-Bold-20" transform="translate(1299.417969 0)"/>
     <use xlink:href="#DejaVuSans-Bold-54" transform="translate(1334.232422 0)"/>
     <use xlink:href="#DejaVuSans-Bold-75" transform="translate(1391.445312 0)"/>
     <use xlink:href="#DejaVuSans-Bold-6e" transform="translate(1462.636719 0)"/>
     <use xlink:href="#DejaVuSans-Bold-6e" transform="translate(1533.828125 0)"/>
     <use xlink:href="#DejaVuSans-Bold-65" transform="translate(1605.019531 0)"/>
     <use xlink:href="#DejaVuSans-Bold-6c" transform="translate(1672.841797 0)"/>
     <use xlink:href="#DejaVuSans-Bold-20" transform="translate(1707.119141 0)"/>
     <use xlink:href="#DejaVuSans-Bold-2014" transform="translate(1741.933594 0)"/>
     <use xlink:href="#DejaVuSans-Bold-20" transform="translate(1841.933594 0)"/>
     <use xlink:href="#DejaVuSans-Bold-4d" transform="translate(1876.748047 0)"/>
     <use xlink:href="#DejaVuSans-Bold-65" transform="translate(1976.259766 0)"/>
     <use xlink:href="#DejaVuSans-Bold-64" transform="translate(2044.082031 0)"/>
     <use xlink:href="#DejaVuSans-Bold-69" transform="translate(2115.664062 0)"/>
     <use xlink:href="#DejaVuSans-Bold-61" transform="translate(2149.941406 0)"/>
     <use xlink:href="#DejaVuSans-Bold-6e" transform="translate(2217.421875 0)"/>
     <use xlink:href="#DejaVuSans-Bold-20" transform="translate(2288.613281 0)"/>
     <use xlink:href="#DejaVuSans-Bold-6f" transform="translate(2323.427734 0)"/>
     <use xlink:href="#DejaVuSans-Bold-66" transform="translate(2392.128906 0)"/>
     <use xlink:href="#DejaVuSans-Bold-20" transform="translate(2435.634766 0)"/>
     <use xlink:href="#DejaVuSans-Bold-35" transform="translate(2470.449219 0)"/>
     <use xlink:href="#DejaVuSans-Bold-20" transform="translate(2540.029297 0)"/>
     <use xlink:href="#DejaVuSans-Bold-72" transform="translate(2574.84375 0)"/>
     <use xlink:href="#DejaVuSans-Bold-75" transform="translate(2624.160156 0)"/>
     <use xlink:href="#DejaVuSans-Bold-6e" transform="translate(2695.351562 0)"/>
     <use xlink:href="#DejaVuSans-Bold-73" transform="translate(2766.542969 0)"/>
     <use xlink:href="#DejaVuSans-Bold-20" transform="translate(2826.064453 0)"/>
     <use xlink:href="#DejaVuSans-Bold-28" transform="translate(2860.878906 0)"/>
     <use xlink:href="#DejaVuSans-Bold-77" transform="translate(2906.582031 0)"/>
     <use xlink:href="#DejaVuSans-Bold-61" transform="translate(2998.964844 0)"/>
     <use xlink:href="#DejaVuSans-Bold-72" transform="translate(3066.445312 0)"/>
     <use xlink:href="#DejaVuSans-Bold-6d" transform="translate(3115.761719 0)"/>
     <use xlink:href="#DejaVuSans-Bold-75" transform="translate(3219.960938 0)"/>
     <use xlink:href="#DejaVuSans-Bold-70" transform="translate(3291.152344 0)"/>
     <use xlink:href="#DejaVuSans-Bold-3d" transform="translate(3362.734375 0)"/>
     <use xlink:href="#DejaVuSans-Bold-31" transform="translate(3446.523438 0)"/>
     <use xlink:href="#DejaVuSans-Bold-2c" transform="translate(3516.103516 0)"/>
     <use xlink:href="#DejaVuSans-Bold-20" transform="translate(3554.091797 0)"/>
     <use xlink:href="#DejaVuSans-Bold-65" transform="translate(3588.90625 0)"/>
     <use xlink:href="#DejaVuSans-Bold-72" transform="translate(3656.728516 0)"/>
     <use xlink:href="#DejaVuSans-Bold-72" transform="translate(3706.044922 0)"/>
     <use xlink:href="#DejaVuSans-Bold-6f" transform="translate(3755.361328 0)"/>
     <use xlink:href="#DejaVuSans-Bold-72" transform="translate(3824.0625 0)"/>
     <use xlink:href="#DejaVuSans-Bold-20" transform="translate(3873.378906 0)"/>
     <use xlink:href="#DejaVuSans-Bold-62" transform="translate(3908.193359 0)"/>
     <use xlink:href="#DejaVuSans-Bold-61" transform="translate(3979.775391 0)"/>
     <use xlink:href="#DejaVuSans-Bold-72" transform="translate(4047.255859 0)"/>
     <use xlink:href="#DejaVuSans-Bold-73" transform="translate(4096.572266 0)"/>
     <use xlink:href="#DejaVuSans-Bold-20" transform="translate(4156.09375 0)"/>
     <use xlink:href="#DejaVuSans-Bold-3d" transform="translate(4190.908203 0)"/>
     <use xlink:href="#DejaVuSans-Bold-20" transform="translate(4274.697266 0)"/>
     <use xlink:href="#DejaVuSans-Bold-6d" transform="translate(4309.511719 0)"/>
     <use xlink:href="#DejaVuSans-Bold-69" transform="translate(4413.710938 0)"/>
     <use xlink:href="#DejaVuSans-Bold-6e" transform="translate(4447.988281 0)"/>
     <use xlink:href="#DejaVuSans-Bold-2f" transform="translate(4519.179688 0)"/>
     <use xlink:href="#DejaVuSans-Bold-6d" transform="translate(4555.703125 0)"/>
     <use xlink:href="#DejaVuSans-Bold-61" transform="translate(4659.902344 0)"/>
     <use xlink:href="#DejaVuSans-Bold-78" transform="translate(4727.382812 0)"/>
     <use xlink:href="#DejaVuSans-Bold-29" transform="translate(4791.884766 0)"/>
    </g>
   </g>
   <g id="legend_1">
    <g id="patch_32">
     <path d="M 59.345938 83.3525 
L 172.388125 83.3525 
Q 174.388125 83.3525 174.388125 81.3525 
L 174.388125 38.318125 
Q 174.388125 36.318125 172.388125 36.318125 
L 59.345938 36.318125 
Q 57.345938 36.318125 57.345938 38.318125 
L 57.345938 81.3525 
Q 57.345938 83.3525 59.345938 83.3525 
z
" style="fill: #ffffff; opacity: 0.8; stroke: #cccccc; stroke-linejoin: miter"/>
    </g>
    <g id="patch_33">
     <path d="M 61.345938 47.916562 
L 81.345938 47.916562 
L 81.345938 40.916562 
L 61.345938 40.916562 
z
" style="fill: #6b7280; stroke: #ffffff; stroke-linejoin: miter"/>
    </g>
    <g id="text_18">
     <!-- Direct -->
     <g transform="translate(89.345938 47.916562) scale(0.1 -0.1)">
      <defs>
       <path id="DejaVuSans-44" d="M 1259 4147 
L 1259 519 
L 2022 519 
Q 2988 519 3436 956 
Q 3884 1394 3884 2338 
Q 3884 3275 3436 3711 
Q 2988 4147 2022 4147 
L 1259 4147 
z
M 628 4666 
L 1925 4666 
Q 3281 4666 3915 4102 
Q 4550 3538 4550 2338 
Q 4550 1131 3912 565 
Q 3275 0 1925 0 
L 628 0 
L 628 4666 
z
" transform="scale(0.015625)"/>
       <path id="DejaVuSans-72" d="M 2631 2963 
Q 2534 3019 2420 3045 
Q 2306 3072 2169 3072 
Q 1681 3072 1420 2755 
Q 1159 2438 1159 1844 
L 1159 0 
L 581 0 
L 581 3500 
L 1159 3500 
L 1159 2956 
Q 1341 3275 1631 3429 
Q 1922 3584 2338 3584 
Q 2397 3584 2469 3576 
Q 2541 3569 2628 3553 
L 2631 2963 
z
" transform="scale(0.015625)"/>
       <path id="DejaVuSans-63" d="M 3122 3366 
L 3122 2828 
Q 2878 2963 2633 3030 
Q 2388 3097 2138 3097 
Q 1578 3097 1268 2742 
Q 959 2388 959 1747 
Q 959 1106 1268 751 
Q 1578 397 2138 397 
Q 2388 397 2633 464 
Q 2878 531 3122 666 
L 3122 134 
Q 2881 22 2623 -34 
Q 2366 -91 2075 -91 
Q 1284 -91 818 406 
Q 353 903 353 1747 
Q 353 2603 823 3093 
Q 1294 3584 2113 3584 
Q 2378 3584 2631 3529 
Q 2884 3475 3122 3366 
z
" transform="scale(0.015625)"/>
       <path id="DejaVuSans-74" d="M 1172 4494 
L 1172 3500 
L 2356 3500 
L 2356 3053 
L 1172 3053 
L 1172 1153 
Q 1172 725 1289 603 
Q 1406 481 1766 481 
L 2356 481 
L 2356 0 
L 1766 0 
Q 1100 0 847 248 
Q 594 497 594 1153 
L 594 3053 
L 172 3053 
L 172 3500 
L 594 3500 
L 594 4494 
L 1172 4494 
z
" transform="scale(0.015625)"/>
      </defs>
      <use xlink:href="#DejaVuSans-44"/>
      <use xlink:href="#DejaVuSans-69" transform="translate(77.001953 0)"/>
      <use xlink:href="#DejaVuSans-72" transform="translate(104.785156 0)"/>
      <use xlink:href="#DejaVuSans-65" transform="translate(143.648438 0)"/>
      <use xlink:href="#DejaVuSans-63" transform="translate(205.171875 0)"/>
      <use xlink:href="#DejaVuSans-74" transform="translate(260.152344 0)"/>
     </g>
    </g>
    <g id="patch_34">
     <path d="M 61.345938 62.594688 
L 81.345938 62.594688 
L 81.345938 55.594688 
L 61.345938 55.594688 
z
" style="fill: #2563eb; stroke: #ffffff; stroke-linejoin: miter"/>
    </g>
    <g id="text_19">
     <!-- Rusnel (QUIC) -->
     <g transform="translate(89.345938 62.594688) scale(0.1 -0.1)">
      <defs>
       <path id="DejaVuSans-52" d="M 2841 2188 
Q 3044 2119 3236 1894 
Q 3428 1669 3622 1275 
L 4263 0 
L 3584 0 
L 2988 1197 
Q 2756 1666 2539 1819 
Q 2322 1972 1947 1972 
L 1259 1972 
L 1259 0 
L 628 0 
L 628 4666 
L 2053 4666 
Q 2853 4666 3247 4331 
Q 3641 3997 3641 3322 
Q 3641 2881 3436 2590 
Q 3231 2300 2841 2188 
z
M 1259 4147 
L 1259 2491 
L 2053 2491 
Q 2509 2491 2742 2702 
Q 2975 2913 2975 3322 
Q 2975 3731 2742 3939 
Q 2509 4147 2053 4147 
L 1259 4147 
z
" transform="scale(0.015625)"/>
       <path id="DejaVuSans-75" d="M 544 1381 
L 544 3500 
L 1119 3500 
L 1119 1403 
Q 1119 906 1312 657 
Q 1506 409 1894 409 
Q 2359 409 2629 706 
Q 2900 1003 2900 1516 
L 2900 3500 
L 3475 3500 
L 3475 0 
L 2900 0 
L 2900 538 
Q 2691 219 2414 64 
Q 2138 -91 1772 -91 
Q 1169 -91 856 284 
Q 544 659 544 1381 
z
M 1991 3584 
L 1991 3584 
z
" transform="scale(0.015625)"/>
       <path id="DejaVuSans-51" d="M 2522 4238 
Q 1834 4238 1429 3725 
Q 1025 3213 1025 2328 
Q 1025 1447 1429 934 
Q 1834 422 2522 422 
Q 3209 422 3611 934 
Q 4013 1447 4013 2328 
Q 4013 3213 3611 3725 
Q 3209 4238 2522 4238 
z
M 3406 84 
L 4238 -825 
L 3475 -825 
L 2784 -78 
Q 2681 -84 2626 -87 
Q 2572 -91 2522 -91 
Q 1538 -91 948 567 
Q 359 1225 359 2328 
Q 359 3434 948 4092 
Q 1538 4750 2522 4750 
Q 3503 4750 4090 4092 
Q 4678 3434 4678 2328 
Q 4678 1516 4351 937 
Q 4025 359 3406 84 
z
" transform="scale(0.015625)"/>
       <path id="DejaVuSans-55" d="M 556 4666 
L 1191 4666 
L 1191 1831 
Q 1191 1081 1462 751 
Q 1734 422 2344 422 
Q 2950 422 3222 751 
Q 3494 1081 3494 1831 
L 3494 4666 
L 4128 4666 
L 4128 1753 
Q 4128 841 3676 375 
Q 3225 -91 2344 -91 
Q 1459 -91 1007 375 
Q 556 841 556 1753 
L 556 4666 
z
" transform="scale(0.015625)"/>
       <path id="DejaVuSans-49" d="M 628 4666 
L 1259 4666 
L 1259 0 
L 628 0 
L 628 4666 
z
" transform="scale(0.015625)"/>
       <path id="DejaVuSans-43" d="M 4122 4306 
L 4122 3641 
Q 3803 3938 3442 4084 
Q 3081 4231 2675 4231 
Q 1875 4231 1450 3742 
Q 1025 3253 1025 2328 
Q 1025 1406 1450 917 
Q 1875 428 2675 428 
Q 3081 428 3442 575 
Q 3803 722 4122 1019 
L 4122 359 
Q 3791 134 3420 21 
Q 3050 -91 2638 -91 
Q 1578 -91 968 557 
Q 359 1206 359 2328 
Q 359 3453 968 4101 
Q 1578 4750 2638 4750 
Q 3056 4750 3426 4639 
Q 3797 4528 4122 4306 
z
" transform="scale(0.015625)"/>
      </defs>
      <use xlink:href="#DejaVuSans-52"/>
      <use xlink:href="#DejaVuSans-75" transform="translate(64.982422 0)"/>
      <use xlink:href="#DejaVuSans-73" transform="translate(128.361328 0)"/>
      <use xlink:href="#DejaVuSans-6e" transform="translate(180.460938 0)"/>
      <use xlink:href="#DejaVuSans-65" transform="translate(243.839844 0)"/>
      <use xlink:href="#DejaVuSans-6c" transform="translate(305.363281 0)"/>
      <use xlink:href="#DejaVuSans-20" transform="translate(333.146484 0)"/>
      <use xlink:href="#DejaVuSans-28" transform="translate(364.933594 0)"/>
      <use xlink:href="#DejaVuSans-51" transform="translate(403.947266 0)"/>
      <use xlink:href="#DejaVuSans-55" transform="translate(482.658203 0)"/>
      <use xlink:href="#DejaVuSans-49" transform="translate(555.851562 0)"/>
      <use xlink:href="#DejaVuSans-43" transform="translate(585.34375 0)"/>
      <use xlink:href="#DejaVuSans-29" transform="translate(655.167969 0)"/>
     </g>
    </g>
    <g id="patch_35">
     <path d="M 61.345938 77.272812 
L 81.345938 77.272812 
L 81.345938 70.272812 
L 61.345938 70.272812 
z
" style="fill: #9333ea; stroke: #ffffff; stroke-linejoin: miter"/>
    </g>
    <g id="text_20">
     <!-- Chisel (SSH/WS) -->
     <g transform="translate(89.345938 77.272812) scale(0.1 -0.1)">
      <defs>
       <path id="DejaVuSans-68" d="M 3513 2113 
L 3513 0 
L 2938 0 
L 2938 2094 
Q 2938 2591 2744 2837 
Q 2550 3084 2163 3084 
Q 1697 3084 1428 2787 
Q 1159 2491 1159 1978 
L 1159 0 
L 581 0 
L 581 4863 
L 1159 4863 
L 1159 2956 
Q 1366 3272 1645 3428 
Q 1925 3584 2291 3584 
Q 2894 3584 3203 3211 
Q 3513 2838 3513 2113 
z
" transform="scale(0.015625)"/>
       <path id="DejaVuSans-48" d="M 628 4666 
L 1259 4666 
L 1259 2753 
L 3553 2753 
L 3553 4666 
L 4184 4666 
L 4184 0 
L 3553 0 
L 3553 2222 
L 1259 2222 
L 1259 0 
L 628 0 
L 628 4666 
z
" transform="scale(0.015625)"/>
       <path id="DejaVuSans-2f" d="M 1625 4666 
L 2156 4666 
L 531 -594 
L 0 -594 
L 1625 4666 
z
" transform="scale(0.015625)"/>
       <path id="DejaVuSans-57" d="M 213 4666 
L 850 4666 
L 1831 722 
L 2809 4666 
L 3519 4666 
L 4500 722 
L 5478 4666 
L 6119 4666 
L 4947 0 
L 4153 0 
L 3169 4050 
L 2175 0 
L 1381 0 
L 213 4666 
z
" transform="scale(0.015625)"/>
      </defs>
      <use xlink:href="#DejaVuSans-43"/>
      <use xlink:href="#DejaVuSans-68" transform="translate(69.824219 0)"/>
      <use xlink:href="#DejaVuSans-69" transform="translate(133.203125 0)"/>
      <use xlink:href="#DejaVuSans-73" transform="translate(160.986328 0)"/>
      <use xlink:href="#DejaVuSans-65" transform="translate(213.085938 0)"/>
      <use xlink:href="#DejaVuSans-6c" transform="translate(274.609375 0)"/>
      <use xlink:href="#DejaVuSans-20" transform="translate(302.392578 0)"/>
      <use xlink:href="#DejaVuSans-28" transform="translate(334.179688 0)"/>
      <use xlink:href="#DejaVuSans-53" transform="translate(373.193359 0)"/>
      <use xlink:href="#DejaVuSans-53" transform="translate(436.669922 0)"/>
      <use xlink:href="#DejaVuSans-48" transform="translate(500.146484 0)"/>
      <use xlink:href="#DejaVuSans-2f" transform="translate(575.341797 0)"/>
      <use xlink:href="#DejaVuSans-57" transform="translate(609.033203 0)"/>
      <use xlink:href="#DejaVuSans-53" transform="translate(707.910156 0)"/>
      <use xlink:href="#DejaVuSans-29" transform="translate(771.386719 0)"/>
     </g>
    </g>
   </g>
  </g>
 </g>
 <defs>
  <clipPath id="p9f3ce66644">
   <rect x="52.345938" y="31.318125" width="652.707946" height="281.44"/>
  </clipPath>
 </defs>
</svg>
