<?xml version="1.0" encoding="utf-8" standalone="no"?>
<!DOCTYPE svg PUBLIC "-//W3C//DTD SVG 1.1//EN"
  "http://www.w3.org/Graphics/SVG/1.1/DTD/svg11.dtd">
<svg xmlns:xlink="http://www.w3.org/1999/xlink" width="712.235753pt" height="351.282188pt" viewBox="0 0 712.235753 351.282188" xmlns="http://www.w3.org/2000/svg" version="1.1">
 <metadata>
  <rdf:RDF xmlns:dc="http://purl.org/dc/elements/1.1/" xmlns:cc="http://creativecommons.org/ns#" xmlns:rdf="http://www.w3.org/1999/02/22-rdf-syntax-ns#">
   <cc:Work>
    <dc:type rdf:resource="http://purl.org/dc/dcmitype/StillImage"/>
    <dc:date>2026-04-30T11:56:32.237779</dc:date>
    <dc:format>image/svg+xml</dc:format>
    <dc:creator>
     <cc:Agent>
      <dc:title>Matplotlib v3.10.9, https://matplotlib.org/</dc:title>
     </cc:Agent>
    </dc:creator>
   </cc:Work>
  </rdf:RDF>
 </metadata>
 <defs>
  <style type="text/css">*{stroke-linejoin: round; stroke-linecap: butt}</style>
 </defs>
 <g id="figure_1">
  <g id="patch_1">
   <path d="M 0 351.282188 
L 712.235753 351.282188 
L 712.235753 0 
L 0 0 
z
" style="fill: #fafafa"/>
  </g>
  <g id="axes_1">
   <g id="patch_2">
    <path d="M 46.445938 312.758125 
L 705.035753 312.758125 
L 705.035753 31.318125 
L 46.445938 31.318125 
z
" style="fill: #fafafa"/>
   </g>
   <g id="matplotlib.axis_1">
    <g id="xtick_1">
     <g id="line2d_1">
      <defs>
       <path id="m988b969127" d="M 0 0 
L 0 3.5 
" style="stroke: #000000; stroke-width: 0.8"/>
      </defs>
      <g>
       <use xlink:href="#m988b969127" x="105.352065" y="312.758125" style="stroke: #000000; stroke-width: 0.8"/>
      </g>
     </g>
     <g id="text_1">
      <!-- 1B -->
      <g transform="translate(98.740346 327.356562) scale(0.1 -0.1)">
       <defs>
        <path id="DejaVuSans-31" d="M 794 531 
L 1825 531 
L 1825 4091 
L 703 3866 
L 703 4441 
L 1819 4666 
L 2450 4666 
L 2450 531 
L 3481 531 
L 3481 0 
L 794 0 
L 794 531 
z
" transform="scale(0.015625)"/>
        <path id="DejaVuSans-42" d="M 1259 2228 
L 1259 519 
L 2272 519 
Q 2781 519 3026 730 
Q 3272 941 3272 1375 
Q 3272 1813 3026 2020 
Q 2781 2228 2272 2228 
L 1259 2228 
z
M 1259 4147 
L 1259 2741 
L 2194 2741 
Q 2656 2741 2882 2914 
Q 3109 3088 3109 3444 
Q 3109 3797 2882 3972 
Q 2656 4147 2194 4147 
L 1259 4147 
z
M 628 4666 
L 2241 4666 
Q 2963 4666 3353 4366 
Q 3744 4066 3744 3513 
Q 3744 3084 3544 2831 
Q 3344 2578 2956 2516 
Q 3422 2416 3680 2098 
Q 3938 1781 3938 1306 
Q 3938 681 3513 340 
Q 3088 0 2303 0 
L 628 0 
L 628 4666 
z
" transform="scale(0.015625)"/>
       </defs>
       <use xlink:href="#DejaVuSans-31"/>
       <use xlink:href="#DejaVuSans-42" transform="translate(63.623047 0)"/>
      </g>
     </g>
    </g>
    <g id="xtick_2">
     <g id="line2d_2">
      <g>
       <use xlink:href="#m988b969127" x="182.606002" y="312.758125" style="stroke: #000000; stroke-width: 0.8"/>
      </g>
     </g>
     <g id="text_2">
      <!-- 10B -->
      <g transform="translate(172.813033 327.356562) scale(0.1 -0.1)">
       <defs>
        <path id="DejaVuSans-30" d="M 2034 4250 
Q 1547 4250 1301 3770 
Q 1056 3291 1056 2328 
Q 1056 1369 1301 889 
Q 1547 409 2034 409 
Q 2525 409 2770 889 
Q 3016 1369 3016 2328 
Q 3016 3291 2770 3770 
Q 2525 4250 2034 4250 
z
M 2034 4750 
Q 2819 4750 3233 4129 
Q 3647 3509 3647 2328 
Q 3647 1150 3233 529 
Q 2819 -91 2034 -91 
Q 1250 -91 836 529 
Q 422 1150 422 2328 
Q 422 3509 836 4129 
Q 1250 4750 2034 4750 
z
" transform="scale(0.015625)"/>
       </defs>
       <use xlink:href="#DejaVuSans-31"/>
       <use xlink:href="#DejaVuSans-30" transform="translate(63.623047 0)"/>
       <use xlink:href="#DejaVuSans-42" transform="translate(127.246094 0)"/>
      </g>
     </g>
    </g>
    <g id="xtick_3">
     <g id="line2d_3">
      <g>
       <use xlink:href="#m988b969127" x="259.859939" y="312.758125" style="stroke: #000000; stroke-width: 0.8"/>
      </g>
     </g>
     <g id="text_3">
      <!-- 100B -->
      <g transform="translate(246.88572 327.356562) scale(0.1 -0.1)">
       <use xlink:href="#DejaVuSans-31"/>
       <use xlink:href="#DejaVuSans-30" transform="translate(63.623047 0)"/>
       <use xlink:href="#DejaVuSans-30" transform="translate(127.246094 0)"/>
       <use xlink:href="#DejaVuSans-42" transform="translate(190.869141 0)"/>
      </g>
     </g>
    </g>
    <g id="xtick_4">
     <g id="line2d_4">
      <g>
       <use xlink:href="#m988b969127" x="337.113876" y="312.758125" style="stroke: #000000; stroke-width: 0.8"/>
      </g>
     </g>
     <g id="text_4">
      <!-- 1KB -->
      <g transform="translate(327.223251 327.356562) scale(0.1 -0.1)">
       <defs>
        <path id="DejaVuSans-4b" d="M 628 4666 
L 1259 4666 
L 1259 2694 
L 3353 4666 
L 4166 4666 
L 1850 2491 
L 4331 0 
L 3500 0 
L 1259 2247 
L 1259 0 
L 628 0 
L 628 4666 
z
" transform="scale(0.015625)"/>
       </defs>
       <use xlink:href="#DejaVuSans-31"/>
       <use xlink:href="#DejaVuSans-4b" transform="translate(63.623047 0)"/>
       <use xlink:href="#DejaVuSans-42" transform="translate(129.199219 0)"/>
      </g>
     </g>
    </g>
    <g id="xtick_5">
     <g id="line2d_5">
      <g>
       <use xlink:href="#m988b969127" x="414.367814" y="312.758125" style="stroke: #000000; stroke-width: 0.8"/>
      </g>
     </g>
     <g id="text_5">
      <!-- 10KB -->
      <g transform="translate(401.295939 327.356562) scale(0.1 -0.1)">
       <use xlink:href="#DejaVuSans-31"/>
       <use xlink:href="#DejaVuSans-30" transform="translate(63.623047 0)"/>
       <use xlink:href="#DejaVuSans-4b" transform="translate(127.246094 0)"/>
       <use xlink:href="#DejaVuSans-42" transform="translate(192.822266 0)"/>
      </g>
     </g>
    </g>
    <g id="xtick_6">
     <g id="line2d_6">
      <g>
       <use xlink:href="#m988b969127" x="491.621751" y="312.758125" style="stroke: #000000; stroke-width: 0.8"/>
      </g>
     </g>
     <g id="text_6">
      <!-- 100KB -->
      <g transform="translate(475.368626 327.356562) scale(0.1 -0.1)">
       <use xlink:href="#DejaVuSans-31"/>
       <use xlink:href="#DejaVuSans-30" transform="translate(63.623047 0)"/>
       <use xlink:href="#DejaVuSans-30" transform="translate(127.246094 0)"/>
       <use xlink:href="#DejaVuSans-4b" transform="translate(190.869141 0)"/>
       <use xlink:href="#DejaVuSans-42" transform="translate(256.445312 0)"/>
      </g>
     </g>
    </g>
    <g id="xtick_7">
     <g id="line2d_7">
      <g>
       <use xlink:href="#m988b969127" x="568.875688" y="312.758125" style="stroke: #000000; stroke-width: 0.8"/>
      </g>
     </g>
     <g id="text_7">
      <!-- 1MB -->
      <g transform="translate(557.949907 327.356562) scale(0.1 -0.1)">
       <defs>
        <path id="DejaVuSans-4d" d="M 628 4666 
L 1569 4666 
L 2759 1491 
L 3956 4666 
L 4897 4666 
L 4897 0 
L 4281 0 
L 4281 4097 
L 3078 897 
L 2444 897 
L 1241 4097 
L 1241 0 
L 628 0 
L 628 4666 
z
" transform="scale(0.015625)"/>
       </defs>
       <use xlink:href="#DejaVuSans-31"/>
       <use xlink:href="#DejaVuSans-4d" transform="translate(63.623047 0)"/>
       <use xlink:href="#DejaVuSans-42" transform="translate(149.902344 0)"/>
      </g>
     </g>
    </g>
    <g id="xtick_8">
     <g id="line2d_8">
      <g>
       <use xlink:href="#m988b969127" x="646.129626" y="312.758125" style="stroke: #000000; stroke-width: 0.8"/>
      </g>
     </g>
     <g id="text_8">
      <!-- 10MB -->
      <g transform="translate(632.022594 327.356562) scale(0.1 -0.1)">
       <use xlink:href="#DejaVuSans-31"/>
       <use xlink:href="#DejaVuSans-30" transform="translate(63.623047 0)"/>
       <use xlink:href="#DejaVuSans-4d" transform="translate(127.246094 0)"/>
       <use xlink:href="#DejaVuSans-42" transform="translate(213.525391 0)"/>
      </g>
     </g>
    </g>
    <g id="text_9">
     <!-- Payload Size -->
     <g transform="translate(341.252408 341.794531) scale(0.11 -0.11)">
      <defs>
       <path id="DejaVuSans-50" d="M 1259 4147 
L 1259 2394 
L 2053 2394 
Q 2494 2394 2734 2622 
Q 2975 2850 2975 3272 
Q 2975 3691 2734 3919 
Q 2494 4147 2053 4147 
L 1259 4147 
z
M 628 4666 
L 2053 4666 
Q 2838 4666 3239 4311 
Q 3641 3956 3641 3272 
Q 3641 2581 3239 2228 
Q 2838 1875 2053 1875 
L 1259 1875 
L 1259 0 
L 628 0 
L 628 4666 
z
" transform="scale(0.015625)"/>
       <path id="DejaVuSans-61" d="M 2194 1759 
Q 1497 1759 1228 1600 
Q 959 1441 959 1056 
Q 959 750 1161 570 
Q 1363 391 1709 391 
Q 2188 391 2477 730 
Q 2766 1069 2766 1631 
L 2766 1759 
L 2194 1759 
z
M 3341 1997 
L 3341 0 
L 2766 0 
L 2766 531 
Q 2569 213 2275 61 
Q 1981 -91 1556 -91 
Q 1019 -91 701 211 
Q 384 513 384 1019 
Q 384 1609 779 1909 
Q 1175 2209 1959 2209 
L 2766 2209 
L 2766 2266 
Q 2766 2663 2505 2880 
Q 2244 3097 1772 3097 
Q 1472 3097 1187 3025 
Q 903 2953 641 2809 
L 641 3341 
Q 956 3463 1253 3523 
Q 1550 3584 1831 3584 
Q 2591 3584 2966 3190 
Q 3341 2797 3341 1997 
z
" transform="scale(0.015625)"/>
       <path id="DejaVuSans-79" d="M 2059 -325 
Q 1816 -950 1584 -1140 
Q 1353 -1331 966 -1331 
L 506 -1331 
L 506 -850 
L 844 -850 
Q 1081 -850 1212 -737 
Q 1344 -625 1503 -206 
L 1606 56 
L 191 3500 
L 800 3500 
L 1894 763 
L 2988 3500 
L 3597 3500 
L 2059 -325 
z
" transform="scale(0.015625)"/>
       <path id="DejaVuSans-6c" d="M 603 4863 
L 1178 4863 
L 1178 0 
L 603 0 
L 603 4863 
z
" transform="scale(0.015625)"/>
       <path id="DejaVuSans-6f" d="M 1959 3097 
Q 1497 3097 1228 2736 
Q 959 2375 959 1747 
Q 959 1119 1226 758 
Q 1494 397 1959 397 
Q 2419 397 2687 759 
Q 2956 1122 2956 1747 
Q 2956 2369 2687 2733 
Q 2419 3097 1959 3097 
z
M 1959 3584 
Q 2709 3584 3137 3096 
Q 3566 2609 3566 1747 
Q 3566 888 3137 398 
Q 2709 -91 1959 -91 
Q 1206 -91 779 398 
Q 353 888 353 1747 
Q 353 2609 779 3096 
Q 1206 3584 1959 3584 
z
" transform="scale(0.015625)"/>
       <path id="DejaVuSans-64" d="M 2906 2969 
L 2906 4863 
L 3481 4863 
L 3481 0 
L 2906 0 
L 2906 525 
Q 2725 213 2448 61 
Q 2172 -91 1784 -91 
Q 1150 -91 751 415 
Q 353 922 353 1747 
Q 353 2572 751 3078 
Q 1150 3584 1784 3584 
Q 2172 3584 2448 3432 
Q 2725 3281 2906 2969 
z
M 947 1747 
Q 947 1113 1208 752 
Q 1469 391 1925 391 
Q 2381 391 2643 752 
Q 2906 1113 2906 1747 
Q 2906 2381 2643 2742 
Q 2381 3103 1925 3103 
Q 1469 3103 1208 2742 
Q 947 2381 947 1747 
z
" transform="scale(0.015625)"/>
       <path id="DejaVuSans-20" transform="scale(0.015625)"/>
       <path id="DejaVuSans-53" d="M 3425 4513 
L 3425 3897 
Q 3066 4069 2747 4153 
Q 2428 4238 2131 4238 
Q 1616 4238 1336 4038 
Q 1056 3838 1056 3469 
Q 1056 3159 1242 3001 
Q 1428 2844 1947 2747 
L 2328 2669 
Q 3034 2534 3370 2195 
Q 3706 1856 3706 1288 
Q 3706 609 3251 259 
Q 2797 -91 1919 -91 
Q 1588 -91 1214 -16 
Q 841 59 441 206 
L 441 856 
Q 825 641 1194 531 
Q 1563 422 1919 422 
Q 2459 422 2753 634 
Q 3047 847 3047 1241 
Q 3047 1584 2836 1778 
Q 2625 1972 2144 2069 
L 1759 2144 
Q 1053 2284 737 2584 
Q 422 2884 422 3419 
Q 422 4038 858 4394 
Q 1294 4750 2059 4750 
Q 2388 4750 2728 4690 
Q 3069 4631 3425 4513 
z
" transform="scale(0.015625)"/>
       <path id="DejaVuSans-69" d="M 603 3500 
L 1178 3500 
L 1178 0 
L 603 0 
L 603 3500 
z
M 603 4863 
L 1178 4863 
L 1178 4134 
L 603 4134 
L 603 4863 
z
" transform="scale(0.015625)"/>
       <path id="DejaVuSans-7a" d="M 353 3500 
L 3084 3500 
L 3084 2975 
L 922 459 
L 3084 459 
L 3084 0 
L 275 0 
L 275 525 
L 2438 3041 
L 353 3041 
L 353 3500 
z
" transform="scale(0.015625)"/>
       <path id="DejaVuSans-65" d="M 3597 1894 
L 3597 1613 
L 953 1613 
Q 991 1019 1311 708 
Q 1631 397 2203 397 
Q 2534 397 2845 478 
Q 3156 559 3463 722 
L 3463 178 
Q 3153 47 2828 -22 
Q 2503 -91 2169 -91 
Q 1331 -91 842 396 
Q 353 884 353 1716 
Q 353 2575 817 3079 
Q 1281 3584 2069 3584 
Q 2775 3584 3186 3129 
Q 3597 2675 3597 1894 
z
M 3022 2063 
Q 3016 2534 2758 2815 
Q 2500 3097 2075 3097 
Q 1594 3097 1305 2825 
Q 1016 2553 972 2059 
L 3022 2063 
z
" transform="scale(0.015625)"/>
      </defs>
      <use xlink:href="#DejaVuSans-50"/>
      <use xlink:href="#DejaVuSans-61" transform="translate(55.802734 0)"/>
      <use xlink:href="#DejaVuSans-79" transform="translate(117.082031 0)"/>
      <use xlink:href="#DejaVuSans-6c" transform="translate(176.261719 0)"/>
      <use xlink:href="#DejaVuSans-6f" transform="translate(204.044922 0)"/>
      <use xlink:href="#DejaVuSans-61" transform="translate(265.226562 0)"/>
      <use xlink:href="#DejaVuSans-64" transform="translate(326.505859 0)"/>
      <use xlink:href="#DejaVuSans-20" transform="translate(389.982422 0)"/>
      <use xlink:href="#DejaVuSans-53" transform="translate(421.769531 0)"/>
      <use xlink:href="#DejaVuSans-69" transform="translate(485.246094 0)"/>
      <use xlink:href="#DejaVuSans-7a" transform="translate(513.029297 0)"/>
      <use xlink:href="#DejaVuSans-65" transform="translate(565.519531 0)"/>
     </g>
    </g>
   </g>
   <g id="matplotlib.axis_2">
    <g id="ytick_1">
     <g id="line2d_9">
      <path d="M 46.445938 232.17529 
L 705.035753 232.17529 
" clip-path="url(#pfce2070978)" style="fill: none; stroke: #e5e7eb; stroke-opacity: 0.7; stroke-width: 0.8; stroke-linecap: square"/>
     </g>
     <g id="line2d_10">
      <defs>
       <path id="macc7997b1c" d="M 0 0 
L -3.5 0 
" style="stroke: #000000; stroke-width: 0.8"/>
      </defs>
      <g>
       <use xlink:href="#macc7997b1c" x="46.445938" y="232.17529" style="stroke: #000000; stroke-width: 0.8"/>
      </g>
     </g>
     <g id="text_10">
      <!-- $\mathdefault{10^{2}}$ -->
      <g transform="translate(21.845938 235.974509) scale(0.1 -0.1)">
       <defs>
        <path id="DejaVuSans-32" d="M 1228 531 
L 3431 531 
L 3431 0 
L 469 0 
L 469 531 
Q 828 903 1448 1529 
Q 2069 2156 2228 2338 
Q 2531 2678 2651 2914 
Q 2772 3150 2772 3378 
Q 2772 3750 2511 3984 
Q 2250 4219 1831 4219 
Q 1534 4219 1204 4116 
Q 875 4013 500 3803 
L 500 4441 
Q 881 4594 1212 4672 
Q 1544 4750 1819 4750 
Q 2544 4750 2975 4387 
Q 3406 4025 3406 3419 
Q 3406 3131 3298 2873 
Q 3191 2616 2906 2266 
Q 2828 2175 2409 1742 
Q 1991 1309 1228 531 
z
" transform="scale(0.015625)"/>
       </defs>
       <use xlink:href="#DejaVuSans-31" transform="translate(0 0.765625)"/>
       <use xlink:href="#DejaVuSans-30" transform="translate(63.623047 0.765625)"/>
       <use xlink:href="#DejaVuSans-32" transform="translate(128.203125 39.046875) scale(0.7)"/>
      </g>
     </g>
    </g>
    <g id="ytick_2">
     <g id="line2d_11">
      <defs>
       <path id="m33469f3262" d="M 0 0 
L -2 0 
" style="stroke: #000000; stroke-width: 0.6"/>
      </defs>
      <g>
       <use xlink:href="#m33469f3262" x="46.445938" y="301.94687" style="stroke: #000000; stroke-width: 0.6"/>
      </g>
     </g>
    </g>
    <g id="ytick_3">
     <g id="line2d_12">
      <g>
       <use xlink:href="#m33469f3262" x="46.445938" y="283.594544" style="stroke: #000000; stroke-width: 0.6"/>
      </g>
     </g>
    </g>
    <g id="ytick_4">
     <g id="line2d_13">
      <g>
       <use xlink:href="#m33469f3262" x="46.445938" y="268.077873" style="stroke: #000000; stroke-width: 0.6"/>
      </g>
     </g>
    </g>
    <g id="ytick_5">
     <g id="line2d_14">
      <g>
       <use xlink:href="#m33469f3262" x="46.445938" y="254.636722" style="stroke: #000000; stroke-width: 0.6"/>
      </g>
     </g>
    </g>
    <g id="ytick_6">
     <g id="line2d_15">
      <g>
       <use xlink:href="#m33469f3262" x="46.445938" y="242.780786" style="stroke: #000000; stroke-width: 0.6"/>
      </g>
     </g>
    </g>
    <g id="ytick_7">
     <g id="line2d_16">
      <g>
       <use xlink:href="#m33469f3262" x="46.445938" y="162.403711" style="stroke: #000000; stroke-width: 0.6"/>
      </g>
     </g>
    </g>
    <g id="ytick_8">
     <g id="line2d_17">
      <g>
       <use xlink:href="#m33469f3262" x="46.445938" y="121.589953" style="stroke: #000000; stroke-width: 0.6"/>
      </g>
     </g>
    </g>
    <g id="ytick_9">
     <g id="line2d_18">
      <g>
       <use xlink:href="#m33469f3262" x="46.445938" y="92.632132" style="stroke: #000000; stroke-width: 0.6"/>
      </g>
     </g>
    </g>
    <g id="ytick_10">
     <g id="line2d_19">
      <g>
       <use xlink:href="#m33469f3262" x="46.445938" y="70.1707" style="stroke: #000000; stroke-width: 0.6"/>
      </g>
     </g>
    </g>
    <g id="ytick_11">
     <g id="line2d_20">
      <g>
       <use xlink:href="#m33469f3262" x="46.445938" y="51.818374" style="stroke: #000000; stroke-width: 0.6"/>
      </g>
     </g>
    </g>
    <g id="ytick_12">
     <g id="line2d_21">
      <g>
       <use xlink:href="#m33469f3262" x="46.445938" y="36.301704" style="stroke: #000000; stroke-width: 0.6"/>
      </g>
     </g>
    </g>
    <g id="text_11">
     <!-- Time (ms, median) -->
     <g transform="translate(15.558281 223.870469) rotate(-90) scale(0.11 -0.11)">
      <defs>
       <path id="DejaVuSans-54" d="M -19 4666 
L 3928 4666 
L 3928 4134 
L 2272 4134 
L 2272 0 
L 1638 0 
L 1638 4134 
L -19 4134 
L -19 4666 
z
" transform="scale(0.015625)"/>
       <path id="DejaVuSans-6d" d="M 3328 2828 
Q 3544 3216 3844 3400 
Q 4144 3584 4550 3584 
Q 5097 3584 5394 3201 
Q 5691 2819 5691 2113 
L 5691 0 
L 5113 0 
L 5113 2094 
Q 5113 2597 4934 2840 
Q 4756 3084 4391 3084 
Q 3944 3084 3684 2787 
Q 3425 2491 3425 1978 
L 3425 0 
L 2847 0 
L 2847 2094 
Q 2847 2600 2669 2842 
Q 2491 3084 2119 3084 
Q 1678 3084 1418 2786 
Q 1159 2488 1159 1978 
L 1159 0 
L 581 0 
L 581 3500 
L 1159 3500 
L 1159 2956 
Q 1356 3278 1631 3431 
Q 1906 3584 2284 3584 
Q 2666 3584 2933 3390 
Q 3200 3197 3328 2828 
z
" transform="scale(0.015625)"/>
       <path id="DejaVuSans-28" d="M 1984 4856 
Q 1566 4138 1362 3434 
Q 1159 2731 1159 2009 
Q 1159 1288 1364 580 
Q 1569 -128 1984 -844 
L 1484 -844 
Q 1016 -109 783 600 
Q 550 1309 550 2009 
Q 550 2706 781 3412 
Q 1013 4119 1484 4856 
L 1984 4856 
z
" transform="scale(0.015625)"/>
       <path id="DejaVuSans-73" d="M 2834 3397 
L 2834 2853 
Q 2591 2978 2328 3040 
Q 2066 3103 1784 3103 
Q 1356 3103 1142 2972 
Q 928 2841 928 2578 
Q 928 2378 1081 2264 
Q 1234 2150 1697 2047 
L 1894 2003 
Q 2506 1872 2764 1633 
Q 3022 1394 3022 966 
Q 3022 478 2636 193 
Q 2250 -91 1575 -91 
Q 1294 -91 989 -36 
Q 684 19 347 128 
L 347 722 
Q 666 556 975 473 
Q 1284 391 1588 391 
Q 1994 391 2212 530 
Q 2431 669 2431 922 
Q 2431 1156 2273 1281 
Q 2116 1406 1581 1522 
L 1381 1569 
Q 847 1681 609 1914 
Q 372 2147 372 2553 
Q 372 3047 722 3315 
Q 1072 3584 1716 3584 
Q 2034 3584 2315 3537 
Q 2597 3491 2834 3397 
z
" transform="scale(0.015625)"/>
       <path id="DejaVuSans-2c" d="M 750 794 
L 1409 794 
L 1409 256 
L 897 -744 
L 494 -744 
L 750 256 
L 750 794 
z
" transform="scale(0.015625)"/>
       <path id="DejaVuSans-6e" d="M 3513 2113 
L 3513 0 
L 2938 0 
L 2938 2094 
Q 2938 2591 2744 2837 
Q 2550 3084 2163 3084 
Q 1697 3084 1428 2787 
Q 1159 2491 1159 1978 
L 1159 0 
L 581 0 
L 581 3500 
L 1159 3500 
L 1159 2956 
Q 1366 3272 1645 3428 
Q 1925 3584 2291 3584 
Q 2894 3584 3203 3211 
Q 3513 2838 3513 2113 
z
" transform="scale(0.015625)"/>
       <path id="DejaVuSans-29" d="M 513 4856 
L 1013 4856 
Q 1481 4119 1714 3412 
Q 1947 2706 1947 2009 
Q 1947 1309 1714 600 
Q 1481 -109 1013 -844 
L 513 -844 
Q 928 -128 1133 580 
Q 1338 1288 1338 2009 
Q 1338 2731 1133 3434 
Q 928 4138 513 4856 
z
" transform="scale(0.015625)"/>
      </defs>
      <use xlink:href="#DejaVuSans-54"/>
      <use xlink:href="#DejaVuSans-69" transform="translate(57.958984 0)"/>
      <use xlink:href="#DejaVuSans-6d" transform="translate(85.742188 0)"/>
      <use xlink:href="#DejaVuSans-65" transform="translate(183.154297 0)"/>
      <use xlink:href="#DejaVuSans-20" transform="translate(244.677734 0)"/>
      <use xlink:href="#DejaVuSans-28" transform="translate(276.464844 0)"/>
      <use xlink:href="#DejaVuSans-6d" transform="translate(315.478516 0)"/>
      <use xlink:href="#DejaVuSans-73" transform="translate(412.890625 0)"/>
      <use xlink:href="#DejaVuSans-2c" transform="translate(464.990234 0)"/>
      <use xlink:href="#DejaVuSans-20" transform="translate(496.777344 0)"/>
      <use xlink:href="#DejaVuSans-6d" transform="translate(528.564453 0)"/>
      <use xlink:href="#DejaVuSans-65" transform="translate(625.976562 0)"/>
      <use xlink:href="#DejaVuSans-64" transform="translate(687.5 0)"/>
      <use xlink:href="#DejaVuSans-69" transform="translate(750.976562 0)"/>
      <use xlink:href="#DejaVuSans-61" transform="translate(778.759766 0)"/>
      <use xlink:href="#DejaVuSans-6e" transform="translate(840.039062 0)"/>
      <use xlink:href="#DejaVuSans-29" transform="translate(903.417969 0)"/>
     </g>
    </g>
   </g>
   <g id="patch_3">
    <path d="M 76.381838 232471.89729 
L 95.695323 232471.89729 
L 95.695323 292.268879 
L 76.381838 292.268879 
z
" clip-path="url(#pfce2070978)" style="fill: #6b7280; stroke: #ffffff; stroke-linejoin: miter"/>
   </g>
   <g id="patch_4">
    <path d="M 153.635775 232471.89729 
L 172.94926 232471.89729 
L 172.94926 298.229566 
L 153.635775 298.229566 
z
" clip-path="url(#pfce2070978)" style="fill: #6b7280; stroke: #ffffff; stroke-linejoin: miter"/>
   </g>
   <g id="patch_5">
    <path d="M 230.889713 232471.89729 
L 250.203197 232471.89729 
L 250.203197 285.24028 
L 230.889713 285.24028 
z
" clip-path="url(#pfce2070978)" style="fill: #6b7280; stroke: #ffffff; stroke-linejoin: miter"/>
   </g>
   <g id="patch_6">
    <path d="M 308.14365 232471.89729 
L 327.457134 232471.89729 
L 327.457134 286.757441 
L 308.14365 286.757441 
z
" clip-path="url(#pfce2070978)" style="fill: #6b7280; stroke: #ffffff; stroke-linejoin: miter"/>
   </g>
   <g id="patch_7">
    <path d="M 385.397587 232471.89729 
L 404.711072 232471.89729 
L 404.711072 287.544748 
L 385.397587 287.544748 
z
" clip-path="url(#pfce2070978)" style="fill: #6b7280; stroke: #ffffff; stroke-linejoin: miter"/>
   </g>
   <g id="patch_8">
    <path d="M 462.651525 232471.89729 
L 481.965009 232471.89729 
L 481.965009 288.015196 
L 462.651525 288.015196 
z
" clip-path="url(#pfce2070978)" style="fill: #6b7280; stroke: #ffffff; stroke-linejoin: miter"/>
   </g>
   <g id="patch_9">
    <path d="M 539.905462 232471.89729 
L 559.218946 232471.89729 
L 559.218946 290.345364 
L 539.905462 290.345364 
z
" clip-path="url(#pfce2070978)" style="fill: #6b7280; stroke: #ffffff; stroke-linejoin: miter"/>
   </g>
   <g id="patch_10">
    <path d="M 617.159399 232471.89729 
L 636.472883 232471.89729 
L 636.472883 179.987527 
L 617.159399 179.987527 
z
" clip-path="url(#pfce2070978)" style="fill: #6b7280; stroke: #ffffff; stroke-linejoin: miter"/>
   </g>
   <g id="patch_11">
    <path d="M 95.695323 232471.89729 
L 115.008807 232471.89729 
L 115.008807 177.216806 
L 95.695323 177.216806 
z
" clip-path="url(#pfce2070978)" style="fill: #2563eb; stroke: #ffffff; stroke-linejoin: miter"/>
   </g>
   <g id="patch_12">
    <path d="M 172.94926 232471.89729 
L 192.262744 232471.89729 
L 192.262744 177.051345 
L 172.94926 177.051345 
z
" clip-path="url(#pfce2070978)" style="fill: #2563eb; stroke: #ffffff; stroke-linejoin: miter"/>
   </g>
   <g id="patch_13">
    <path d="M 250.203197 232471.89729 
L 269.516681 232471.89729 
L 269.516681 178.423422 
L 250.203197 178.423422 
z
" clip-path="url(#pfce2070978)" style="fill: #2563eb; stroke: #ffffff; stroke-linejoin: miter"/>
   </g>
   <g id="patch_14">
    <path d="M 327.457134 232471.89729 
L 346.770619 232471.89729 
L 346.770619 182.221989 
L 327.457134 182.221989 
z
" clip-path="url(#pfce2070978)" style="fill: #2563eb; stroke: #ffffff; stroke-linejoin: miter"/>
   </g>
   <g id="patch_15">
    <path d="M 404.711072 232471.89729 
L 424.024556 232471.89729 
L 424.024556 178.134678 
L 404.711072 178.134678 
z
" clip-path="url(#pfce2070978)" style="fill: #2563eb; stroke: #ffffff; stroke-linejoin: miter"/>
   </g>
   <g id="patch_16">
    <path d="M 481.965009 232471.89729 
L 501.278493 232471.89729 
L 501.278493 151.477222 
L 481.965009 151.477222 
z
" clip-path="url(#pfce2070978)" style="fill: #2563eb; stroke: #ffffff; stroke-linejoin: miter"/>
   </g>
   <g id="patch_17">
    <path d="M 559.218946 232471.89729 
L 578.53243 232471.89729 
L 578.53243 151.73492 
L 559.218946 151.73492 
z
" clip-path="url(#pfce2070978)" style="fill: #2563eb; stroke: #ffffff; stroke-linejoin: miter"/>
   </g>
   <g id="patch_18">
    <path d="M 636.472883 232471.89729 
L 655.786368 232471.89729 
L 655.786368 66.549482 
L 636.472883 66.549482 
z
" clip-path="url(#pfce2070978)" style="fill: #2563eb; stroke: #ffffff; stroke-linejoin: miter"/>
   </g>
   <g id="patch_19">
    <path d="M 115.008807 232471.89729 
L 134.322291 232471.89729 
L 134.322291 178.67986 
L 115.008807 178.67986 
z
" clip-path="url(#pfce2070978)" style="fill: #9333ea; stroke: #ffffff; stroke-linejoin: miter"/>
   </g>
   <g id="patch_20">
    <path d="M 192.262744 232471.89729 
L 211.576228 232471.89729 
L 211.576228 180.342975 
L 192.262744 180.342975 
z
" clip-path="url(#pfce2070978)" style="fill: #9333ea; stroke: #ffffff; stroke-linejoin: miter"/>
   </g>
   <g id="patch_21">
    <path d="M 269.516681 232471.89729 
L 288.830166 232471.89729 
L 288.830166 178.41221 
L 269.516681 178.41221 
z
" clip-path="url(#pfce2070978)" style="fill: #9333ea; stroke: #ffffff; stroke-linejoin: miter"/>
   </g>
   <g id="patch_22">
    <path d="M 346.770619 232471.89729 
L 366.084103 232471.89729 
L 366.084103 178.76213 
L 346.770619 178.76213 
z
" clip-path="url(#pfce2070978)" style="fill: #9333ea; stroke: #ffffff; stroke-linejoin: miter"/>
   </g>
   <g id="patch_23">
    <path d="M 424.024556 232471.89729 
L 443.33804 232471.89729 
L 443.33804 178.217092 
L 424.024556 178.217092 
z
" clip-path="url(#pfce2070978)" style="fill: #9333ea; stroke: #ffffff; stroke-linejoin: miter"/>
   </g>
   <g id="patch_24">
    <path d="M 501.278493 232471.89729 
L 520.591978 232471.89729 
L 520.591978 175.737933 
L 501.278493 175.737933 
z
" clip-path="url(#pfce2070978)" style="fill: #9333ea; stroke: #ffffff; stroke-linejoin: miter"/>
   </g>
   <g id="patch_25">
    <path d="M 578.53243 232471.89729 
L 597.845915 232471.89729 
L 597.845915 179.797708 
L 578.53243 179.797708 
z
" clip-path="url(#pfce2070978)" style="fill: #9333ea; stroke: #ffffff; stroke-linejoin: miter"/>
   </g>
   <g id="patch_26">
    <path d="M 655.786368 232471.89729 
L 675.099852 232471.89729 
L 675.099852 90.716315 
L 655.786368 90.716315 
z
" clip-path="url(#pfce2070978)" style="fill: #9333ea; stroke: #ffffff; stroke-linejoin: miter"/>
   </g>
   <g id="LineCollection_1">
    <path d="M 86.03858 297.237215 
L 86.03858 283.445343 
" clip-path="url(#pfce2070978)" style="fill: none; stroke: #374151; stroke-width: 0.8"/>
    <path d="M 163.292518 299.965398 
L 163.292518 293.041694 
" clip-path="url(#pfce2070978)" style="fill: none; stroke: #374151; stroke-width: 0.8"/>
    <path d="M 240.546455 289.228523 
L 240.546455 284.523201 
" clip-path="url(#pfce2070978)" style="fill: none; stroke: #374151; stroke-width: 0.8"/>
    <path d="M 317.800392 292.25608 
L 317.800392 280.373534 
" clip-path="url(#pfce2070978)" style="fill: none; stroke: #374151; stroke-width: 0.8"/>
    <path d="M 395.054329 292.988269 
L 395.054329 282.579665 
" clip-path="url(#pfce2070978)" style="fill: none; stroke: #374151; stroke-width: 0.8"/>
    <path d="M 472.308267 298.725535 
L 472.308267 281.746072 
" clip-path="url(#pfce2070978)" style="fill: none; stroke: #374151; stroke-width: 0.8"/>
    <path d="M 549.562204 296.125265 
L 549.562204 218.221707 
" clip-path="url(#pfce2070978)" style="fill: none; stroke: #374151; stroke-width: 0.8"/>
    <path d="M 626.816141 182.103173 
L 626.816141 176.53979 
" clip-path="url(#pfce2070978)" style="fill: none; stroke: #374151; stroke-width: 0.8"/>
   </g>
   <g id="line2d_22">
    <defs>
     <path id="md48c566b98" d="M 3 0 
L -3 -0 
" style="stroke: #374151"/>
    </defs>
    <g clip-path="url(#pfce2070978)">
     <use xlink:href="#md48c566b98" x="86.03858" y="297.237215" style="fill: #1f77b4; stroke: #374151"/>
     <use xlink:href="#md48c566b98" x="163.292518" y="299.965398" style="fill: #1f77b4; stroke: #374151"/>
     <use xlink:href="#md48c566b98" x="240.546455" y="289.228523" style="fill: #1f77b4; stroke: #374151"/>
     <use xlink:href="#md48c566b98" x="317.800392" y="292.25608" style="fill: #1f77b4; stroke: #374151"/>
     <use xlink:href="#md48c566b98" x="395.054329" y="292.988269" style="fill: #1f77b4; stroke: #374151"/>
     <use xlink:href="#md48c566b98" x="472.308267" y="298.725535" style="fill: #1f77b4; stroke: #374151"/>
     <use xlink:href="#md48c566b98" x="549.562204" y="296.125265" style="fill: #1f77b4; stroke: #374151"/>
     <use xlink:href="#md48c566b98" x="626.816141" y="182.103173" style="fill: #1f77b4; stroke: #374151"/>
    </g>
   </g>
   <g id="line2d_23">
    <g clip-path="url(#pfce2070978)">
     <use xlink:href="#md48c566b98" x="86.03858" y="283.445343" style="fill: #1f77b4; stroke: #374151"/>
     <use xlink:href="#md48c566b98" x="163.292518" y="293.041694" style="fill: #1f77b4; stroke: #374151"/>
     <use xlink:href="#md48c566b98" x="240.546455" y="284.523201" style="fill: #1f77b4; stroke: #374151"/>
     <use xlink:href="#md48c566b98" x="317.800392" y="280.373534" style="fill: #1f77b4; stroke: #374151"/>
     <use xlink:href="#md48c566b98" x="395.054329" y="282.579665" style="fill: #1f77b4; stroke: #374151"/>
     <use xlink:href="#md48c566b98" x="472.308267" y="281.746072" style="fill: #1f77b4; stroke: #374151"/>
     <use xlink:href="#md48c566b98" x="549.562204" y="218.221707" style="fill: #1f77b4; stroke: #374151"/>
     <use xlink:href="#md48c566b98" x="626.816141" y="176.53979" style="fill: #1f77b4; stroke: #374151"/>
    </g>
   </g>
   <g id="LineCollection_2">
    <path d="M 105.352065 180.310501 
L 105.352065 176.421128 
" clip-path="url(#pfce2070978)" style="fill: none; stroke: #1e40af; stroke-width: 0.8"/>
    <path d="M 182.606002 182.19993 
L 182.606002 174.512366 
" clip-path="url(#pfce2070978)" style="fill: none; stroke: #1e40af; stroke-width: 0.8"/>
    <path d="M 259.859939 182.581741 
L 259.859939 173.685892 
" clip-path="url(#pfce2070978)" style="fill: none; stroke: #1e40af; stroke-width: 0.8"/>
    <path d="M 337.113876 183.564386 
L 337.113876 178.33907 
" clip-path="url(#pfce2070978)" style="fill: none; stroke: #1e40af; stroke-width: 0.8"/>
    <path d="M 414.367814 180.284648 
L 414.367814 176.787404 
" clip-path="url(#pfce2070978)" style="fill: none; stroke: #1e40af; stroke-width: 0.8"/>
    <path d="M 491.621751 154.128876 
L 491.621751 143.665427 
" clip-path="url(#pfce2070978)" style="fill: none; stroke: #1e40af; stroke-width: 0.8"/>
    <path d="M 568.875688 153.570428 
L 568.875688 134.332944 
" clip-path="url(#pfce2070978)" style="fill: none; stroke: #1e40af; stroke-width: 0.8"/>
    <path d="M 646.129626 73.971799 
L 646.129626 44.110852 
" clip-path="url(#pfce2070978)" style="fill: none; stroke: #1e40af; stroke-width: 0.8"/>
   </g>
   <g id="line2d_24">
    <defs>
     <path id="m2cd71e6516" d="M 3 0 
L -3 -0 
" style="stroke: #1e40af"/>
    </defs>
    <g clip-path="url(#pfce2070978)">
     <use xlink:href="#m2cd71e6516" x="105.352065" y="180.310501" style="fill: #1f77b4; stroke: #1e40af"/>
     <use xlink:href="#m2cd71e6516" x="182.606002" y="182.19993" style="fill: #1f77b4; stroke: #1e40af"/>
     <use xlink:href="#m2cd71e6516" x="259.859939" y="182.581741" style="fill: #1f77b4; stroke: #1e40af"/>
     <use xlink:href="#m2cd71e6516" x="337.113876" y="183.564386" style="fill: #1f77b4; stroke: #1e40af"/>
     <use xlink:href="#m2cd71e6516" x="414.367814" y="180.284648" style="fill: #1f77b4; stroke: #1e40af"/>
     <use xlink:href="#m2cd71e6516" x="491.621751" y="154.128876" style="fill: #1f77b4; stroke: #1e40af"/>
     <use xlink:href="#m2cd71e6516" x="568.875688" y="153.570428" style="fill: #1f77b4; stroke: #1e40af"/>
     <use xlink:href="#m2cd71e6516" x="646.129626" y="73.971799" style="fill: #1f77b4; stroke: #1e40af"/>
    </g>
   </g>
   <g id="line2d_25">
    <g clip-path="url(#pfce2070978)">
     <use xlink:href="#m2cd71e6516" x="105.352065" y="176.421128" style="fill: #1f77b4; stroke: #1e40af"/>
     <use xlink:href="#m2cd71e6516" x="182.606002" y="174.512366" style="fill: #1f77b4; stroke: #1e40af"/>
     <use xlink:href="#m2cd71e6516" x="259.859939" y="173.685892" style="fill: #1f77b4; stroke: #1e40af"/>
     <use xlink:href="#m2cd71e6516" x="337.113876" y="178.33907" style="fill: #1f77b4; stroke: #1e40af"/>
     <use xlink:href="#m2cd71e6516" x="414.367814" y="176.787404" style="fill: #1f77b4; stroke: #1e40af"/>
     <use xlink:href="#m2cd71e6516" x="491.621751" y="143.665427" style="fill: #1f77b4; stroke: #1e40af"/>
     <use xlink:href="#m2cd71e6516" x="568.875688" y="134.332944" style="fill: #1f77b4; stroke: #1e40af"/>
     <use xlink:href="#m2cd71e6516" x="646.129626" y="44.110852" style="fill: #1f77b4; stroke: #1e40af"/>
    </g>
   </g>
   <g id="LineCollection_3">
    <path d="M 124.665549 181.364039 
L 124.665549 177.627554 
" clip-path="url(#pfce2070978)" style="fill: none; stroke: #6b21a8; stroke-width: 0.8"/>
    <path d="M 201.919486 181.628698 
L 201.919486 175.709782 
" clip-path="url(#pfce2070978)" style="fill: none; stroke: #6b21a8; stroke-width: 0.8"/>
    <path d="M 279.173424 181.294187 
L 279.173424 175.930027 
" clip-path="url(#pfce2070978)" style="fill: none; stroke: #6b21a8; stroke-width: 0.8"/>
    <path d="M 356.427361 181.506321 
L 356.427361 175.803457 
" clip-path="url(#pfce2070978)" style="fill: none; stroke: #6b21a8; stroke-width: 0.8"/>
    <path d="M 433.681298 180.074472 
L 433.681298 173.373356 
" clip-path="url(#pfce2070978)" style="fill: none; stroke: #6b21a8; stroke-width: 0.8"/>
    <path d="M 510.935235 178.815434 
L 510.935235 174.786337 
" clip-path="url(#pfce2070978)" style="fill: none; stroke: #6b21a8; stroke-width: 0.8"/>
    <path d="M 588.189173 181.567795 
L 588.189173 147.402294 
" clip-path="url(#pfce2070978)" style="fill: none; stroke: #6b21a8; stroke-width: 0.8"/>
    <path d="M 665.44311 92.866437 
L 665.44311 81.526547 
" clip-path="url(#pfce2070978)" style="fill: none; stroke: #6b21a8; stroke-width: 0.8"/>
   </g>
   <g id="line2d_26">
    <defs>
     <path id="m3bbd3ecf8d" d="M 3 0 
L -3 -0 
" style="stroke: #6b21a8"/>
    </defs>
    <g clip-path="url(#pfce2070978)">
     <use xlink:href="#m3bbd3ecf8d" x="124.665549" y="181.364039" style="fill: #1f77b4; stroke: #6b21a8"/>
     <use xlink:href="#m3bbd3ecf8d" x="201.919486" y="181.628698" style="fill: #1f77b4; stroke: #6b21a8"/>
     <use xlink:href="#m3bbd3ecf8d" x="279.173424" y="181.294187" style="fill: #1f77b4; stroke: #6b21a8"/>
     <use xlink:href="#m3bbd3ecf8d" x="356.427361" y="181.506321" style="fill: #1f77b4; stroke: #6b21a8"/>
     <use xlink:href="#m3bbd3ecf8d" x="433.681298" y="180.074472" style="fill: #1f77b4; stroke: #6b21a8"/>
     <use xlink:href="#m3bbd3ecf8d" x="510.935235" y="178.815434" style="fill: #1f77b4; stroke: #6b21a8"/>
     <use xlink:href="#m3bbd3ecf8d" x="588.189173" y="181.567795" style="fill: #1f77b4; stroke: #6b21a8"/>
     <use xlink:href="#m3bbd3ecf8d" x="665.44311" y="92.866437" style="fill: #1f77b4; stroke: #6b21a8"/>
    </g>
   </g>
   <g id="line2d_27">
    <g clip-path="url(#pfce2070978)">
     <use xlink:href="#m3bbd3ecf8d" x="124.665549" y="177.627554" style="fill: #1f77b4; stroke: #6b21a8"/>
     <use xlink:href="#m3bbd3ecf8d" x="201.919486" y="175.709782" style="fill: #1f77b4; stroke: #6b21a8"/>
     <use xlink:href="#m3bbd3ecf8d" x="279.173424" y="175.930027" style="fill: #1f77b4; stroke: #6b21a8"/>
     <use xlink:href="#m3bbd3ecf8d" x="356.427361" y="175.803457" style="fill: #1f77b4; stroke: #6b21a8"/>
     <use xlink:href="#m3bbd3ecf8d" x="433.681298" y="173.373356" style="fill: #1f77b4; stroke: #6b21a8"/>
     <use xlink:href="#m3bbd3ecf8d" x="510.935235" y="174.786337" style="fill: #1f77b4; stroke: #6b21a8"/>
     <use xlink:href="#m3bbd3ecf8d" x="588.189173" y="147.402294" style="fill: #1f77b4; stroke: #6b21a8"/>
     <use xlink:href="#m3bbd3ecf8d" x="665.44311" y="81.526547" style="fill: #1f77b4; stroke: #6b21a8"/>
    </g>
   </g>
   <g id="patch_27">
    <path d="M 46.445938 312.758125 
L 46.445938 31.318125 
" style="fill: none; stroke: #000000; stroke-width: 0.8; stroke-linejoin: miter; stroke-linecap: square"/>
   </g>
   <g id="patch_28">
    <path d="M 46.445938 312.758125 
L 705.035753 312.758125 
" style="fill: none; stroke: #000000; stroke-width: 0.8; stroke-linejoin: miter; stroke-linecap: square"/>
   </g>
   <g id="text_12">
    <!-- HTTP Request Through Tunnel — Median of 5 runs (warmup=1, error bars = min/max) -->
    <g transform="translate(85.487095 16.318125) scale(0.12 -0.12)">
     <defs>
      <path id="DejaVuSans-Bold-48" d="M 588 4666 
L 1791 4666 
L 1791 2888 
L 3566 2888 
L 3566 4666 
L 4769 4666 
L 4769 0 
L 3566 0 
L 3566 1978 
L 1791 1978 
L 1791 0 
L 588 0 
L 588 4666 
z
" transform="scale(0.015625)"/>
      <path id="DejaVuSans-Bold-54" d="M 31 4666 
L 4331 4666 
L 4331 3756 
L 2784 3756 
L 2784 0 
L 1581 0 
L 1581 3756 
L 31 3756 
L 31 4666 
z
" transform="scale(0.015625)"/>
      <path id="DejaVuSans-Bold-50" d="M 588 4666 
L 2584 4666 
Q 3475 4666 3951 4270 
Q 4428 3875 4428 3144 
Q 4428 2409 3951 2014 
Q 3475 1619 2584 1619 
L 1791 1619 
L 1791 0 
L 588 0 
L 588 4666 
z
M 1791 3794 
L 1791 2491 
L 2456 2491 
Q 2806 2491 2997 2661 
Q 3188 2831 3188 3144 
Q 3188 3456 2997 3625 
Q 2806 3794 2456 3794 
L 1791 3794 
z
" transform="scale(0.015625)"/>
      <path id="DejaVuSans-Bold-20" transform="scale(0.015625)"/>
      <path id="DejaVuSans-Bold-52" d="M 2297 2597 
Q 2675 2597 2839 2737 
Q 3003 2878 3003 3200 
Q 3003 3519 2839 3656 
Q 2675 3794 2297 3794 
L 1791 3794 
L 1791 2597 
L 2297 2597 
z
M 1791 1766 
L 1791 0 
L 588 0 
L 588 4666 
L 2425 4666 
Q 3347 4666 3776 4356 
Q 4206 4047 4206 3378 
Q 4206 2916 3982 2619 
Q 3759 2322 3309 2181 
Q 3556 2125 3751 1926 
Q 3947 1728 4147 1325 
L 4800 0 
L 3519 0 
L 2950 1159 
Q 2778 1509 2601 1637 
Q 2425 1766 2131 1766 
L 1791 1766 
z
" transform="scale(0.015625)"/>
      <path id="DejaVuSans-Bold-65" d="M 4031 1759 
L 4031 1441 
L 1416 1441 
Q 1456 1047 1700 850 
Q 1944 653 2381 653 
Q 2734 653 3104 758 
Q 3475 863 3866 1075 
L 3866 213 
Q 3469 63 3072 -14 
Q 2675 -91 2278 -91 
Q 1328 -91 801 392 
Q 275 875 275 1747 
Q 275 2603 792 3093 
Q 1309 3584 2216 3584 
Q 3041 3584 3536 3087 
Q 4031 2591 4031 1759 
z
M 2881 2131 
Q 2881 2450 2695 2645 
Q 2509 2841 2209 2841 
Q 1884 2841 1681 2658 
Q 1478 2475 1428 2131 
L 2881 2131 
z
" transform="scale(0.015625)"/>
      <path id="DejaVuSans-Bold-71" d="M 2181 2772 
Q 1825 2772 1636 2509 
Q 1447 2247 1447 1747 
Q 1447 1247 1636 984 
Q 1825 722 2181 722 
Q 2541 722 2730 984 
Q 2919 1247 2919 1747 
Q 2919 2247 2730 2509 
Q 2541 2772 2181 2772 
z
M 2919 506 
Q 2688 197 2409 53 
Q 2131 -91 1766 -91 
Q 1119 -91 703 423 
Q 288 938 288 1747 
Q 288 2556 703 3067 
Q 1119 3578 1766 3578 
Q 2131 3578 2409 3434 
Q 2688 3291 2919 2981 
L 2919 3500 
L 4044 3500 
L 4044 -1331 
L 2919 -1331 
L 2919 506 
z
" transform="scale(0.015625)"/>
      <path id="DejaVuSans-Bold-75" d="M 500 1363 
L 500 3500 
L 1625 3500 
L 1625 3150 
Q 1625 2866 1622 2436 
Q 1619 2006 1619 1863 
Q 1619 1441 1641 1255 
Q 1663 1069 1716 984 
Q 1784 875 1895 815 
Q 2006 756 2150 756 
Q 2500 756 2700 1025 
Q 2900 1294 2900 1772 
L 2900 3500 
L 4019 3500 
L 4019 0 
L 2900 0 
L 2900 506 
Q 2647 200 2364 54 
Q 2081 -91 1741 -91 
Q 1134 -91 817 281 
Q 500 653 500 1363 
z
" transform="scale(0.015625)"/>
      <path id="DejaVuSans-Bold-73" d="M 3272 3391 
L 3272 2541 
Q 2913 2691 2578 2766 
Q 2244 2841 1947 2841 
Q 1628 2841 1473 2761 
Q 1319 2681 1319 2516 
Q 1319 2381 1436 2309 
Q 1553 2238 1856 2203 
L 2053 2175 
Q 2913 2066 3209 1816 
Q 3506 1566 3506 1031 
Q 3506 472 3093 190 
Q 2681 -91 1863 -91 
Q 1516 -91 1145 -36 
Q 775 19 384 128 
L 384 978 
Q 719 816 1070 734 
Q 1422 653 1784 653 
Q 2113 653 2278 743 
Q 2444 834 2444 1013 
Q 2444 1163 2330 1236 
Q 2216 1309 1875 1350 
L 1678 1375 
Q 931 1469 631 1722 
Q 331 1975 331 2491 
Q 331 3047 712 3315 
Q 1094 3584 1881 3584 
Q 2191 3584 2531 3537 
Q 2872 3491 3272 3391 
z
" transform="scale(0.015625)"/>
      <path id="DejaVuSans-Bold-74" d="M 1759 4494 
L 1759 3500 
L 2913 3500 
L 2913 2700 
L 1759 2700 
L 1759 1216 
Q 1759 972 1856 886 
Q 1953 800 2241 800 
L 2816 800 
L 2816 0 
L 1856 0 
Q 1194 0 917 276 
Q 641 553 641 1216 
L 641 2700 
L 84 2700 
L 84 3500 
L 641 3500 
L 641 4494 
L 1759 4494 
z
" transform="scale(0.015625)"/>
      <path id="DejaVuSans-Bold-68" d="M 4056 2131 
L 4056 0 
L 2931 0 
L 2931 347 
L 2931 1625 
Q 2931 2084 2911 2256 
Q 2891 2428 2841 2509 
Q 2775 2619 2662 2680 
Q 2550 2741 2406 2741 
Q 2056 2741 1856 2470 
Q 1656 2200 1656 1722 
L 1656 0 
L 538 0 
L 538 4863 
L 1656 4863 
L 1656 2988 
Q 1909 3294 2193 3439 
Q 2478 3584 2822 3584 
Q 3428 3584 3742 3212 
Q 4056 2841 4056 2131 
z
" transform="scale(0.015625)"/>
      <path id="DejaVuSans-Bold-72" d="M 3138 2547 
Q 2991 2616 2845 2648 
Q 2700 2681 2553 2681 
Q 2122 2681 1889 2404 
Q 1656 2128 1656 1613 
L 1656 0 
L 538 0 
L 538 3500 
L 1656 3500 
L 1656 2925 
Q 1872 3269 2151 3426 
Q 2431 3584 2822 3584 
Q 2878 3584 2943 3579 
Q 3009 3575 3134 3559 
L 3138 2547 
z
" transform="scale(0.015625)"/>
      <path id="DejaVuSans-Bold-6f" d="M 2203 2784 
Q 1831 2784 1636 2517 
Q 1441 2250 1441 1747 
Q 1441 1244 1636 976 
Q 1831 709 2203 709 
Q 2569 709 2762 976 
Q 2956 1244 2956 1747 
Q 2956 2250 2762 2517 
Q 2569 2784 2203 2784 
z
M 2203 3584 
Q 3106 3584 3614 3096 
Q 4122 2609 4122 1747 
Q 4122 884 3614 396 
Q 3106 -91 2203 -91 
Q 1297 -91 786 396 
Q 275 884 275 1747 
Q 275 2609 786 3096 
Q 1297 3584 2203 3584 
z
" transform="scale(0.015625)"/>
      <path id="DejaVuSans-Bold-67" d="M 2919 594 
Q 2688 288 2409 144 
Q 2131 0 1766 0 
Q 1125 0 706 504 
Q 288 1009 288 1791 
Q 288 2575 706 3076 
Q 1125 3578 1766 3578 
Q 2131 3578 2409 3434 
Q 2688 3291 2919 2981 
L 2919 3500 
L 4044 3500 
L 4044 353 
Q 4044 -491 3511 -936 
Q 2978 -1381 1966 -1381 
Q 1638 -1381 1331 -1331 
Q 1025 -1281 716 -1178 
L 716 -306 
Q 1009 -475 1290 -558 
Q 1572 -641 1856 -641 
Q 2406 -641 2662 -400 
Q 2919 -159 2919 353 
L 2919 594 
z
M 2181 2772 
Q 1834 2772 1640 2515 
Q 1447 2259 1447 1791 
Q 1447 1309 1634 1061 
Q 1822 813 2181 813 
Q 2531 813 2725 1069 
Q 2919 1325 2919 1791 
Q 2919 2259 2725 2515 
Q 2531 2772 2181 2772 
z
" transform="scale(0.015625)"/>
      <path id="DejaVuSans-Bold-6e" d="M 4056 2131 
L 4056 0 
L 2931 0 
L 2931 347 
L 2931 1631 
Q 2931 2084 2911 2256 
Q 2891 2428 2841 2509 
Q 2775 2619 2662 2680 
Q 2550 2741 2406 2741 
Q 2056 2741 1856 2470 
Q 1656 2200 1656 1722 
L 1656 0 
L 538 0 
L 538 3500 
L 1656 3500 
L 1656 2988 
Q 1909 3294 2193 3439 
Q 2478 3584 2822 3584 
Q 3428 3584 3742 3212 
Q 4056 2841 4056 2131 
z
" transform="scale(0.015625)"/>
      <path id="DejaVuSans-Bold-6c" d="M 538 4863 
L 1656 4863 
L 1656 0 
L 538 0 
L 538 4863 
z
" transform="scale(0.015625)"/>
      <path id="DejaVuSans-Bold-2014" d="M 344 2156 
L 6056 2156 
L 6056 1350 
L 344 1350 
L 344 2156 
z
" transform="scale(0.015625)"/>
      <path id="DejaVuSans-Bold-4d" d="M 588 4666 
L 2119 4666 
L 3181 2169 
L 4250 4666 
L 5778 4666 
L 5778 0 
L 4641 0 
L 4641 3413 
L 3566 897 
L 2803 897 
L 1728 3413 
L 1728 0 
L 588 0 
L 588 4666 
z
" transform="scale(0.015625)"/>
      <path id="DejaVuSans-Bold-64" d="M 2919 2988 
L 2919 4863 
L 4044 4863 
L 4044 0 
L 2919 0 
L 2919 506 
Q 2688 197 2409 53 
Q 2131 -91 1766 -91 
Q 1119 -91 703 423 
Q 288 938 288 1747 
Q 288 2556 703 3070 
Q 1119 3584 1766 3584 
Q 2128 3584 2408 3439 
Q 2688 3294 2919 2988 
z
M 2181 722 
Q 2541 722 2730 984 
Q 2919 1247 2919 1747 
Q 2919 2247 2730 2509 
Q 2541 2772 2181 2772 
Q 1825 2772 1636 2509 
Q 1447 2247 1447 1747 
Q 1447 1247 1636 984 
Q 1825 722 2181 722 
z
" transform="scale(0.015625)"/>
      <path id="DejaVuSans-Bold-69" d="M 538 3500 
L 1656 3500 
L 1656 0 
L 538 0 
L 538 3500 
z
M 538 4863 
L 1656 4863 
L 1656 3950 
L 538 3950 
L 538 4863 
z
" transform="scale(0.015625)"/>
      <path id="DejaVuSans-Bold-61" d="M 2106 1575 
Q 1756 1575 1579 1456 
Q 1403 1338 1403 1106 
Q 1403 894 1545 773 
Q 1688 653 1941 653 
Q 2256 653 2472 879 
Q 2688 1106 2688 1447 
L 2688 1575 
L 2106 1575 
z
M 3816 1997 
L 3816 0 
L 2688 0 
L 2688 519 
Q 2463 200 2181 54 
Q 1900 -91 1497 -91 
Q 953 -91 614 226 
Q 275 544 275 1050 
Q 275 1666 698 1953 
Q 1122 2241 2028 2241 
L 2688 2241 
L 2688 2328 
Q 2688 2594 2478 2717 
Q 2269 2841 1825 2841 
Q 1466 2841 1156 2769 
Q 847 2697 581 2553 
L 581 3406 
Q 941 3494 1303 3539 
Q 1666 3584 2028 3584 
Q 2975 3584 3395 3211 
Q 3816 2838 3816 1997 
z
" transform="scale(0.015625)"/>
      <path id="DejaVuSans-Bold-66" d="M 2841 4863 
L 2841 4128 
L 2222 4128 
Q 1984 4128 1890 4042 
Q 1797 3956 1797 3744 
L 1797 3500 
L 2753 3500 
L 2753 2700 
L 1797 2700 
L 1797 0 
L 678 0 
L 678 2700 
L 122 2700 
L 122 3500 
L 678 3500 
L 678 3744 
Q 678 4316 997 4589 
Q 1316 4863 1984 4863 
L 2841 4863 
z
" transform="scale(0.015625)"/>
      <path id="DejaVuSans-Bold-35" d="M 678 4666 
L 3669 4666 
L 3669 3781 
L 1638 3781 
L 1638 3059 
Q 1775 3097 1914 3117 
Q 2053 3138 2203 3138 
Q 3056 3138 3531 2711 
Q 4006 2284 4006 1522 
Q 4006 766 3489 337 
Q 2972 -91 2053 -91 
Q 1656 -91 1267 -14 
Q 878 63 494 219 
L 494 1166 
Q 875 947 1217 837 
Q 1559 728 1863 728 
Q 2300 728 2551 942 
Q 2803 1156 2803 1522 
Q 2803 1891 2551 2103 
Q 2300 2316 1863 2316 
Q 1603 2316 1309 2248 
Q 1016 2181 678 2041 
L 678 4666 
z
" transform="scale(0.015625)"/>
      <path id="DejaVuSans-Bold-28" d="M 2413 -844 
L 1484 -844 
Q 1006 -72 778 623 
Q 550 1319 550 2003 
Q 550 2688 779 3389 
Q 1009 4091 1484 4856 
L 2413 4856 
Q 2013 4116 1813 3408 
Q 1613 2700 1613 2009 
Q 1613 1319 1811 609 
Q 2009 -100 2413 -844 
z
" transform="scale(0.015625)"/>
      <path id="DejaVuSans-Bold-77" d="M 225 3500 
L 1313 3500 
L 1900 1088 
L 2491 3500 
L 3425 3500 
L 4013 1113 
L 4603 3500 
L 5691 3500 
L 4769 0 
L 3547 0 
L 2956 2406 
L 2369 0 
L 1147 0 
L 225 3500 
z
" transform="scale(0.015625)"/>
      <path id="DejaVuSans-Bold-6d" d="M 3781 2919 
Q 3994 3244 4286 3414 
Q 4578 3584 4928 3584 
Q 5531 3584 5847 3212 
Q 6163 2841 6163 2131 
L 6163 0 
L 5038 0 
L 5038 1825 
Q 5041 1866 5042 1909 
Q 5044 1953 5044 2034 
Q 5044 2406 4934 2573 
Q 4825 2741 4581 2741 
Q 4263 2741 4089 2478 
Q 3916 2216 3909 1719 
L 3909 0 
L 2784 0 
L 2784 1825 
Q 2784 2406 2684 2573 
Q 2584 2741 2328 2741 
Q 2006 2741 1831 2477 
Q 1656 2213 1656 1722 
L 1656 0 
L 531 0 
L 531 3500 
L 1656 3500 
L 1656 2988 
Q 1863 3284 2130 3434 
Q 2397 3584 2719 3584 
Q 3081 3584 3359 3409 
Q 3638 3234 3781 2919 
z
" transform="scale(0.015625)"/>
      <path id="DejaVuSans-Bold-70" d="M 1656 506 
L 1656 -1331 
L 538 -1331 
L 538 3500 
L 1656 3500 
L 1656 2988 
Q 1888 3294 2169 3439 
Q 2450 3584 2816 3584 
Q 3463 3584 3878 3070 
Q 4294 2556 4294 1747 
Q 4294 938 3878 423 
Q 3463 -91 2816 -91 
Q 2450 -91 2169 54 
Q 1888 200 1656 506 
z
M 2400 2772 
Q 2041 2772 1848 2508 
Q 1656 2244 1656 1747 
Q 1656 1250 1848 986 
Q 2041 722 2400 722 
Q 2759 722 2948 984 
Q 3138 1247 3138 1747 
Q 3138 2247 2948 2509 
Q 2759 2772 2400 2772 
z
" transform="scale(0.015625)"/>
      <path id="DejaVuSans-Bold-3d" d="M 678 3084 
L 4684 3084 
L 4684 2350 
L 678 2350 
L 678 3084 
z
M 678 1663 
L 4684 1663 
L 4684 922 
L 678 922 
L 678 1663 
z
" transform="scale(0.015625)"/>
      <path id="DejaVuSans-Bold-31" d="M 750 831 
L 1813 831 
L 1813 3847 
L 722 3622 
L 722 4441 
L 1806 4666 
L 2950 4666 
L 2950 831 
L 4013 831 
L 4013 0 
L 750 0 
L 750 831 
z
" transform="scale(0.015625)"/>
      <path id="DejaVuSans-Bold-2c" d="M 653 1209 
L 1778 1209 
L 1778 256 
L 1006 -909 
L 341 -909 
L 653 256 
L 653 1209 
z
" transform="scale(0.015625)"/>
      <path id="DejaVuSans-Bold-62" d="M 2400 722 
Q 2759 722 2948 984 
Q 3138 1247 3138 1747 
Q 3138 2247 2948 2509 
Q 2759 2772 2400 2772 
Q 2041 2772 1848 2508 
Q 1656 2244 1656 1747 
Q 1656 1250 1848 986 
Q 2041 722 2400 722 
z
M 1656 2988 
Q 1888 3294 2169 3439 
Q 2450 3584 2816 3584 
Q 3463 3584 3878 3070 
Q 4294 2556 4294 1747 
Q 4294 938 3878 423 
Q 3463 -91 2816 -91 
Q 2450 -91 2169 54 
Q 1888 200 1656 506 
L 1656 0 
L 538 0 
L 538 4863 
L 1656 4863 
L 1656 2988 
z
" transform="scale(0.015625)"/>
      <path id="DejaVuSans-Bold-2f" d="M 1644 4666 
L 2338 4666 
L 691 -594 
L 0 -594 
L 1644 4666 
z
" transform="scale(0.015625)"/>
      <path id="DejaVuSans-Bold-78" d="M 1422 1791 
L 159 3500 
L 1344 3500 
L 2059 2463 
L 2784 3500 
L 3969 3500 
L 2706 1797 
L 4031 0 
L 2847 0 
L 2059 1106 
L 1281 0 
L 97 0 
L 1422 1791 
z
" transform="scale(0.015625)"/>
      <path id="DejaVuSans-Bold-29" d="M 513 -844 
Q 913 -100 1113 609 
Q 1313 1319 1313 2009 
Q 1313 2700 1113 3408 
Q 913 4116 513 4856 
L 1441 4856 
Q 1916 4091 2145 3389 
Q 2375 2688 2375 2003 
Q 2375 1319 2147 623 
Q 1919 -72 1441 -844 
L 513 -844 
z
" transform="scale(0.015625)"/>
     </defs>
     <use xlink:href="#DejaVuSans-Bold-48"/>
     <use xlink:href="#DejaVuSans-Bold-54" transform="translate(83.691406 0)"/>
     <use xlink:href="#DejaVuSans-Bold-54" transform="translate(154.154297 0)"/>
     <use xlink:href="#DejaVuSans-Bold-50" transform="translate(222.367188 0)"/>
     <use xlink:href="#DejaVuSans-Bold-20" transform="translate(295.658203 0)"/>
     <use xlink:href="#DejaVuSans-Bold-52" transform="translate(330.472656 0)"/>
     <use xlink:href="#DejaVuSans-Bold-65" transform="translate(407.474609 0)"/>
     <use xlink:href="#DejaVuSans-Bold-71" transform="translate(475.296875 0)"/>
     <use xlink:href="#DejaVuSans-Bold-75" transform="translate(546.878906 0)"/>
     <use xlink:href="#DejaVuSans-Bold-65" transform="translate(618.070312 0)"/>
     <use xlink:href="#DejaVuSans-Bold-73" transform="translate(685.892578 0)"/>
     <use xlink:href="#DejaVuSans-Bold-74" transform="translate(745.414062 0)"/>
     <use xlink:href="#DejaVuSans-Bold-20" transform="translate(793.216797 0)"/>
     <use xlink:href="#DejaVuSans-Bold-54" transform="translate(828.03125 0)"/>
     <use xlink:href="#DejaVuSans-Bold-68" transform="translate(896.244141 0)"/>
     <use xlink:href="#DejaVuSans-Bold-72" transform="translate(967.435547 0)"/>
     <use xlink:href="#DejaVuSans-Bold-6f" transform="translate(1016.751953 0)"/>
     <use xlink:href="#DejaVuSans-Bold-75" transform="translate(1085.453125 0)"/>
     <use xlink:href="#DejaVuSans-Bold-67" transform="translate(1156.644531 0)"/>
     <use xlink:href="#DejaVuSans-Bold-68" transform="translate(1228.226562 0)"/>
     <use xlink:href="#DejaVuSans-Bold-20" transform="translate(1299.417969 0)"/>
     <use xlink:href="#DejaVuSans-Bold-54" transform="translate(1334.232422 0)"/>
     <use xlink:href="#DejaVuSans-Bold-75" transform="translate(1391.445312 0)"/>
     <use xlink:href="#DejaVuSans-Bold-6e" transform="translate(1462.636719 0)"/>
     <use xlink:href="#DejaVuSans-Bold-6e" transform="translate(1533.828125 0)"/>
     <use xlink:href="#DejaVuSans-Bold-65" transform="translate(1605.019531 0)"/>
     <use xlink:href="#DejaVuSans-Bold-6c" transform="translate(1672.841797 0)"/>
     <use xlink:href="#DejaVuSans-Bold-20" transform="translate(1707.119141 0)"/>
     <use xlink:href="#DejaVuSans-Bold-2014" transform="translate(1741.933594 0)"/>
     <use xlink:href="#DejaVuSans-Bold-20" transform="translate(1841.933594 0)"/>
     <use xlink:href="#DejaVuSans-Bold-4d" transform="translate(1876.748047 0)"/>
     <use xlink:href="#DejaVuSans-Bold-65" transform="translate(1976.259766 0)"/>
     <use xlink:href="#DejaVuSans-Bold-64" transform="translate(2044.082031 0)"/>
     <use xlink:href="#DejaVuSans-Bold-69" transform="translate(2115.664062 0)"/>
     <use xlink:href="#DejaVuSans-Bold-61" transform="translate(2149.941406 0)"/>
     <use xlink:href="#DejaVuSans-Bold-6e" transform="translate(2217.421875 0)"/>
     <use xlink:href="#DejaVuSans-Bold-20" transform="translate(2288.613281 0)"/>
     <use xlink:href="#DejaVuSans-Bold-6f" transform="translate(2323.427734 0)"/>
     <use xlink:href="#DejaVuSans-Bold-66" transform="translate(2392.128906 0)"/>
     <use xlink:href="#DejaVuSans-Bold-20" transform="translate(2435.634766 0)"/>
     <use xlink:href="#DejaVuSans-Bold-35" transform="translate(2470.449219 0)"/>
     <use xlink:href="#DejaVuSans-Bold-20" transform="translate(2540.029297 0)"/>
     <use xlink:href="#DejaVuSans-Bold-72" transform="translate(2574.84375 0)"/>
     <use xlink:href="#DejaVuSans-Bold-75" transform="translate(2624.160156 0)"/>
     <use xlink:href="#DejaVuSans-Bold-6e" transform="translate(2695.351562 0)"/>
     <use xlink:href="#DejaVuSans-Bold-73" transform="translate(2766.542969 0)"/>
     <use xlink:href="#DejaVuSans-Bold-20" transform="translate(2826.064453 0)"/>
     <use xlink:href="#DejaVuSans-Bold-28" transform="translate(2860.878906 0)"/>
     <use xlink:href="#DejaVuSans-Bold-77" transform="translate(2906.582031 0)"/>
     <use xlink:href="#DejaVuSans-Bold-61" transform="translate(2998.964844 0)"/>
     <use xlink:href="#DejaVuSans-Bold-72" transform="translate(3066.445312 0)"/>
     <use xlink:href="#DejaVuSans-Bold-6d" transform="translate(3115.761719 0)"/>
     <use xlink:href="#DejaVuSans-Bold-75" transform="translate(3219.960938 0)"/>
     <use xlink:href="#DejaVuSans-Bold-70" transform="translate(3291.152344 0)"/>
     <use xlink:href="#DejaVuSans-Bold-3d" transform="translate(3362.734375 0)"/>
     <use xlink:href="#DejaVuSans-Bold-31" transform="translate(3446.523438 0)"/>
     <use xlink:href="#DejaVuSans-Bold-2c" transform="translate(3516.103516 0)"/>
     <use xlink:href="#DejaVuSans-Bold-20" transform="translate(3554.091797 0)"/>
     <use xlink:href="#DejaVuSans-Bold-65" transform="translate(3588.90625 0)"/>
     <use xlink:href="#DejaVuSans-Bold-72" transform="translate(3656.728516 0)"/>
     <use xlink:href="#DejaVuSans-Bold-72" transform="translate(3706.044922 0)"/>
     <use xlink:href="#DejaVuSans-Bold-6f" transform="translate(3755.361328 0)"/>
     <use xlink:href="#DejaVuSans-Bold-72" transform="translate(3824.0625 0)"/>
     <use xlink:href="#DejaVuSans-Bold-20" transform="translate(3873.378906 0)"/>
     <use xlink:href="#DejaVuSans-Bold-62" transform="translate(3908.193359 0)"/>
     <use xlink:href="#DejaVuSans-Bold-61" transform="translate(3979.775391 0)"/>
     <use xlink:href="#DejaVuSans-Bold-72" transform="translate(4047.255859 0)"/>
     <use xlink:href="#DejaVuSans-Bold-73" transform="translate(4096.572266 0)"/>
     <use xlink:href="#DejaVuSans-Bold-20" transform="translate(4156.09375 0)"/>
     <use xlink:href="#DejaVuSans-Bold-3d" transform="translate(4190.908203 0)"/>
     <use xlink:href="#DejaVuSans-Bold-20" transform="translate(4274.697266 0)"/>
     <use xlink:href="#DejaVuSans-Bold-6d" transform="translate(4309.511719 0)"/>
     <use xlink:href="#DejaVuSans-Bold-69" transform="translate(4413.710938 0)"/>
     <use xlink:href="#DejaVuSans-Bold-6e" transform="translate(4447.988281 0)"/>
     <use xlink:href="#DejaVuSans-Bold-2f" transform="translate(4519.179688 0)"/>
     <use xlink:href="#DejaVuSans-Bold-6d" transform="translate(4555.703125 0)"/>
     <use xlink:href="#DejaVuSans-Bold-61" transform="translate(4659.902344 0)"/>
     <use xlink:href="#DejaVuSans-Bold-78" transform="translate(4727.382812 0)"/>
     <use xlink:href="#DejaVuSans-Bold-29" transform="translate(4791.884766 0)"/>
    </g>
   </g>
   <g id="legend_1">
    <g id="patch_29">
     <path d="M 53.445938 83.3525 
L 166.488125 83.3525 
Q 168.488125 83.3525 168.488125 81.3525 
L 168.488125 38.318125 
Q 168.488125 36.318125 166.488125 36.318125 
L 53.445938 36.318125 
Q 51.445938 36.318125 51.445938 38.318125 
L 51.445938 81.3525 
Q 51.445938 83.3525 53.445938 83.3525 
z
" style="fill: #ffffff; opacity: 0.8; stroke: #cccccc; stroke-linejoin: miter"/>
    </g>
    <g id="patch_30">
     <path d="M 55.445938 47.916562 
L 75.445938 47.916562 
L 75.445938 40.916562 
L 55.445938 40.916562 
z
" style="fill: #6b7280; stroke: #ffffff; stroke-linejoin: miter"/>
    </g>
    <g id="text_13">
     <!-- Direct -->
     <g transform="translate(83.445938 47.916562) scale(0.1 -0.1)">
      <defs>
       <path id="DejaVuSans-44" d="M 1259 4147 
L 1259 519 
L 2022 519 
Q 2988 519 3436 956 
Q 3884 1394 3884 2338 
Q 3884 3275 3436 3711 
Q 2988 4147 2022 4147 
L 1259 4147 
z
M 628 4666 
L 1925 4666 
Q 3281 4666 3915 4102 
Q 4550 3538 4550 2338 
Q 4550 1131 3912 565 
Q 3275 0 1925 0 
L 628 0 
L 628 4666 
z
" transform="scale(0.015625)"/>
       <path id="DejaVuSans-72" d="M 2631 2963 
Q 2534 3019 2420 3045 
Q 2306 3072 2169 3072 
Q 1681 3072 1420 2755 
Q 1159 2438 1159 1844 
L 1159 0 
L 581 0 
L 581 3500 
L 1159 3500 
L 1159 2956 
Q 1341 3275 1631 3429 
Q 1922 3584 2338 3584 
Q 2397 3584 2469 3576 
Q 2541 3569 2628 3553 
L 2631 2963 
z
" transform="scale(0.015625)"/>
       <path id="DejaVuSans-63" d="M 3122 3366 
L 3122 2828 
Q 2878 2963 2633 3030 
Q 2388 3097 2138 3097 
Q 1578 3097 1268 2742 
Q 959 2388 959 1747 
Q 959 1106 1268 751 
Q 1578 397 2138 397 
Q 2388 397 2633 464 
Q 2878 531 3122 666 
L 3122 134 
Q 2881 22 2623 -34 
Q 2366 -91 2075 -91 
Q 1284 -91 818 406 
Q 353 903 353 1747 
Q 353 2603 823 3093 
Q 1294 3584 2113 3584 
Q 2378 3584 2631 3529 
Q 2884 3475 3122 3366 
z
" transform="scale(0.015625)"/>
       <path id="DejaVuSans-74" d="M 1172 4494 
L 1172 3500 
L 2356 3500 
L 2356 3053 
L 1172 3053 
L 1172 1153 
Q 1172 725 1289 603 
Q 1406 481 1766 481 
L 2356 481 
L 2356 0 
L 1766 0 
Q 1100 0 847 248 
Q 594 497 594 1153 
L 594 3053 
L 172 3053 
L 172 3500 
L 594 3500 
L 594 4494 
L 1172 4494 
z
" transform="scale(0.015625)"/>
      </defs>
      <use xlink:href="#DejaVuSans-44"/>
      <use xlink:href="#DejaVuSans-69" transform="translate(77.001953 0)"/>
      <use xlink:href="#DejaVuSans-72" transform="translate(104.785156 0)"/>
      <use xlink:href="#DejaVuSans-65" transform="translate(143.648438 0)"/>
      <use xlink:href="#DejaVuSans-63" transform="translate(205.171875 0)"/>
      <use xlink:href="#DejaVuSans-74" transform="translate(260.152344 0)"/>
     </g>
    </g>
    <g id="patch_31">
     <path d="M 55.445938 62.594688 
L 75.445938 62.594688 
L 75.445938 55.594688 
L 55.445938 55.594688 
z
" style="fill: #2563eb; stroke: #ffffff; stroke-linejoin: miter"/>
    </g>
    <g id="text_14">
     <!-- Rusnel (QUIC) -->
     <g transform="translate(83.445938 62.594688) scale(0.1 -0.1)">
      <defs>
       <path id="DejaVuSans-52" d="M 2841 2188 
Q 3044 2119 3236 1894 
Q 3428 1669 3622 1275 
L 4263 0 
L 3584 0 
L 2988 1197 
Q 2756 1666 2539 1819 
Q 2322 1972 1947 1972 
L 1259 1972 
L 1259 0 
L 628 0 
L 628 4666 
L 2053 4666 
Q 2853 4666 3247 4331 
Q 3641 3997 3641 3322 
Q 3641 2881 3436 2590 
Q 3231 2300 2841 2188 
z
M 1259 4147 
L 1259 2491 
L 2053 2491 
Q 2509 2491 2742 2702 
Q 2975 2913 2975 3322 
Q 2975 3731 2742 3939 
Q 2509 4147 2053 4147 
L 1259 4147 
z
" transform="scale(0.015625)"/>
       <path id="DejaVuSans-75" d="M 544 1381 
L 544 3500 
L 1119 3500 
L 1119 1403 
Q 1119 906 1312 657 
Q 1506 409 1894 409 
Q 2359 409 2629 706 
Q 2900 1003 2900 1516 
L 2900 3500 
L 3475 3500 
L 3475 0 
L 2900 0 
L 2900 538 
Q 2691 219 2414 64 
Q 2138 -91 1772 -91 
Q 1169 -91 856 284 
Q 544 659 544 1381 
z
M 1991 3584 
L 1991 3584 
z
" transform="scale(0.015625)"/>
       <path id="DejaVuSans-51" d="M 2522 4238 
Q 1834 4238 1429 3725 
Q 1025 3213 1025 2328 
Q 1025 1447 1429 934 
Q 1834 422 2522 422 
Q 3209 422 3611 934 
Q 4013 1447 4013 2328 
Q 4013 3213 3611 3725 
Q 3209 4238 2522 4238 
z
M 3406 84 
L 4238 -825 
L 3475 -825 
L 2784 -78 
Q 2681 -84 2626 -87 
Q 2572 -91 2522 -91 
Q 1538 -91 948 567 
Q 359 1225 359 2328 
Q 359 3434 948 4092 
Q 1538 4750 2522 4750 
Q 3503 4750 4090 4092 
Q 4678 3434 4678 2328 
Q 4678 1516 4351 937 
Q 4025 359 3406 84 
z
" transform="scale(0.015625)"/>
       <path id="DejaVuSans-55" d="M 556 4666 
L 1191 4666 
L 1191 1831 
Q 1191 1081 1462 751 
Q 1734 422 2344 422 
Q 2950 422 3222 751 
Q 3494 1081 3494 1831 
L 3494 4666 
L 4128 4666 
L 4128 1753 
Q 4128 841 3676 375 
Q 3225 -91 2344 -91 
Q 1459 -91 1007 375 
Q 556 841 556 1753 
L 556 4666 
z
" transform="scale(0.015625)"/>
       <path id="DejaVuSans-49" d="M 628 4666 
L 1259 4666 
L 1259 0 
L 628 0 
L 628 4666 
z
" transform="scale(0.015625)"/>
       <path id="DejaVuSans-43" d="M 4122 4306 
L 4122 3641 
Q 3803 3938 3442 4084 
Q 3081 4231 2675 4231 
Q 1875 4231 1450 3742 
Q 1025 3253 1025 2328 
Q 1025 1406 1450 917 
Q 1875 428 2675 428 
Q 3081 428 3442 575 
Q 3803 722 4122 1019 
L 4122 359 
Q 3791 134 3420 21 
Q 3050 -91 2638 -91 
Q 1578 -91 968 557 
Q 359 1206 359 2328 
Q 359 3453 968 4101 
Q 1578 4750 2638 4750 
Q 3056 4750 3426 4639 
Q 3797 4528 4122 4306 
z
" transform="scale(0.015625)"/>
      </defs>
      <use xlink:href="#DejaVuSans-52"/>
      <use xlink:href="#DejaVuSans-75" transform="translate(64.982422 0)"/>
      <use xlink:href="#DejaVuSans-73" transform="translate(128.361328 0)"/>
      <use xlink:href="#DejaVuSans-6e" transform="translate(180.460938 0)"/>
      <use xlink:href="#DejaVuSans-65" transform="translate(243.839844 0)"/>
      <use xlink:href="#DejaVuSans-6c" transform="translate(305.363281 0)"/>
      <use xlink:href="#DejaVuSans-20" transform="translate(333.146484 0)"/>
      <use xlink:href="#DejaVuSans-28" transform="translate(364.933594 0)"/>
      <use xlink:href="#DejaVuSans-51" transform="translate(403.947266 0)"/>
      <use xlink:href="#DejaVuSans-55" transform="translate(482.658203 0)"/>
      <use xlink:href="#DejaVuSans-49" transform="translate(555.851562 0)"/>
      <use xlink:href="#DejaVuSans-43" transform="translate(585.34375 0)"/>
      <use xlink:href="#DejaVuSans-29" transform="translate(655.167969 0)"/>
     </g>
    </g>
    <g id="patch_32">
     <path d="M 55.445938 77.272812 
L 75.445938 77.272812 
L 75.445938 70.272812 
L 55.445938 70.272812 
z
" style="fill: #9333ea; stroke: #ffffff; stroke-linejoin: miter"/>
    </g>
    <g id="text_15">
     <!-- Chisel (SSH/WS) -->
     <g transform="translate(83.445938 77.272812) scale(0.1 -0.1)">
      <defs>
       <path id="DejaVuSans-68" d="M 3513 2113 
L 3513 0 
L 2938 0 
L 2938 2094 
Q 2938 2591 2744 2837 
Q 2550 3084 2163 3084 
Q 1697 3084 1428 2787 
Q 1159 2491 1159 1978 
L 1159 0 
L 581 0 
L 581 4863 
L 1159 4863 
L 1159 2956 
Q 1366 3272 1645 3428 
Q 1925 3584 2291 3584 
Q 2894 3584 3203 3211 
Q 3513 2838 3513 2113 
z
" transform="scale(0.015625)"/>
       <path id="DejaVuSans-48" d="M 628 4666 
L 1259 4666 
L 1259 2753 
L 3553 2753 
L 3553 4666 
L 4184 4666 
L 4184 0 
L 3553 0 
L 3553 2222 
L 1259 2222 
L 1259 0 
L 628 0 
L 628 4666 
z
" transform="scale(0.015625)"/>
       <path id="DejaVuSans-2f" d="M 1625 4666 
L 2156 4666 
L 531 -594 
L 0 -594 
L 1625 4666 
z
" transform="scale(0.015625)"/>
       <path id="DejaVuSans-57" d="M 213 4666 
L 850 4666 
L 1831 722 
L 2809 4666 
L 3519 4666 
L 4500 722 
L 5478 4666 
L 6119 4666 
L 4947 0 
L 4153 0 
L 3169 4050 
L 2175 0 
L 1381 0 
L 213 4666 
z
" transform="scale(0.015625)"/>
      </defs>
      <use xlink:href="#DejaVuSans-43"/>
      <use xlink:href="#DejaVuSans-68" transform="translate(69.824219 0)"/>
      <use xlink:href="#DejaVuSans-69" transform="translate(133.203125 0)"/>
      <use xlink:href="#DejaVuSans-73" transform="translate(160.986328 0)"/>
      <use xlink:href="#DejaVuSans-65" transform="translate(213.085938 0)"/>
      <use xlink:href="#DejaVuSans-6c" transform="translate(274.609375 0)"/>
      <use xlink:href="#DejaVuSans-20" transform="translate(302.392578 0)"/>
      <use xlink:href="#DejaVuSans-28" transform="translate(334.179688 0)"/>
      <use xlink:href="#DejaVuSans-53" transform="translate(373.193359 0)"/>
      <use xlink:href="#DejaVuSans-53" transform="translate(436.669922 0)"/>
      <use xlink:href="#DejaVuSans-48" transform="translate(500.146484 0)"/>
      <use xlink:href="#DejaVuSans-2f" transform="translate(575.341797 0)"/>
      <use xlink:href="#DejaVuSans-57" transform="translate(609.033203 0)"/>
      <use xlink:href="#DejaVuSans-53" transform="translate(707.910156 0)"/>
      <use xlink:href="#DejaVuSans-29" transform="translate(771.386719 0)"/>
     </g>
    </g>
   </g>
  </g>
 </g>
 <defs>
  <clipPath id="pfce2070978">
   <rect x="46.445938" y="31.318125" width="658.589815" height="281.44"/>
  </clipPath>
 </defs>
</svg>
